<?xml version="1.0" standalone="no"?>
<!DOCTYPE svg PUBLIC "-//W3C//DTD SVG 1.1//EN" "http://www.w3.org/Graphics/SVG/1.1/DTD/svg11.dtd" >
<svg xmlns="http://www.w3.org/2000/svg">
<metadata>Generated by IcoMoon</metadata>
<defs>
<font id="icomoon" horiz-adv-x="1024">
<font-face units-per-em="1024" ascent="960" descent="-64" />
<missing-glyph horiz-adv-x="1024" />
<glyph unicode="&#x20;" horiz-adv-x="512" d="" />
<glyph unicode="&#x30;" glyph-name="checkbox" d="M870.4 870.4h-716.8c-28.32 0-51.2-22.88-51.2-51.2v-716.8c0-28.32 22.88-51.2 51.2-51.2h716.8c28.32 0 51.2 22.88 51.2 51.2v716.8c0 28.32-22.88 51.2-51.2 51.2zM819.2 153.6h-614.4v614.4h614.4v-614.4z" />
<glyph unicode="&#x31;" glyph-name="checkbox-filled" d="M870.4 870.4h-716.8c-28.32 0-51.2-22.88-51.2-51.2v-716.8c0-28.32 22.88-51.2 51.2-51.2h716.8c28.32 0 51.2 22.88 51.2 51.2v716.8c0 28.32-22.88 51.2-51.2 51.2z" />
<glyph unicode="&#x4c;" glyph-name="libero" d="M870.4 51.2h-716.8c-28.32 0-51.2 22.88-51.2 51.2v716.8c0 28.32 22.88 51.2 51.2 51.2s51.2-22.88 51.2-51.2v-665.6h665.6c28.32 0 51.2-22.88 51.2-51.2s-22.88-51.2-51.2-51.2z" />
<glyph unicode="&#xe600;" glyph-name="soccerball-alt" d="M512 12.8c-254.56 0-460.8 206.24-460.8 460.8s206.24 460.8 460.8 460.8 460.8-206.24 460.8-460.8-206.24-460.8-460.8-460.8zM802.080 763.68c-36.64 36.48-80.16 65.76-130.88 87.2s-103.68 32.32-159.2 32.32-108.48-10.72-159.2-32.32-94.4-50.56-130.88-87.2-65.76-80.16-87.2-130.88-32.32-103.68-32.32-159.2 10.72-108.48 32.32-159.2 50.56-94.4 87.2-130.88c36.64-36.48 80.16-65.76 130.88-87.2s103.68-32.32 159.2-32.32 108.48 10.72 159.2 32.32 94.4 50.72 130.88 87.2c36.48 36.64 65.76 80.16 87.2 130.88s32.32 103.68 32.32 159.2-10.72 108.48-32.32 159.2-50.72 94.4-87.2 130.88zM665.6 268.8l-51.2-128v-10.4c-33.6-10.080-67.68-15.2-102.4-15.2s-68.8 5.12-102.4 15.2v10.4l-51.2 128h-140c-37.92 54.4-58.88 114.4-63.2 180l100.8 76v153.6l-28 13.6c37.28 48 84.32 84.48 140.8 109.6l143.2-72 143.2 72c56.48-25.12 103.2-61.6 140-109.6l-27.2-13.6v-153.6l100.8-76c-4.32-65.6-25.28-125.6-63.2-180h-140zM512 601.6l-128-88 48.8-141.6h158.4l48.8 141.6-128 88z" />
<glyph unicode="&#xe601;" glyph-name="baseball-icon" d="M743.040 192.64c0 0 0 0 0 0s-0.16 0.16-0.16 0.16c0 0 0 0 0 0-0.16 0.16-0.32 0.48-0.64 0.64 0 0 0 0 0 0s-0.16 0.16-0.16 0.16c0 0 0 0 0 0-0.16 0.16-0.32 0.32-0.32 0.48 0 0 0 0 0 0s-0.16 0.16-0.16 0.16c0 0 0 0 0 0s-0.16 0.16-0.16 0.16c0 0 0 0 0 0s-0.16 0.16-0.16 0.16c0 0 0 0 0 0s-0.16 0.16-0.16 0.16c0 0 0 0 0 0s-0.16 0.16-0.16 0.16c0 0 0 0 0 0s-0.16 0.16-0.16 0.16v0c0 0-0.16 0.16-0.16 0.16s0 0 0 0-0.16 0.16-0.16 0.16c0 0 0 0 0 0s-0.16 0.16-0.16 0.16c0 0 0 0 0 0s-0.16 0.16-0.16 0.16c0 0 0 0 0 0s-0.16 0.16-0.16 0.16c0 0 0 0 0 0s0 0-0.16 0.16c0 0 0 0 0 0.16 0 0 0 0.16-0.16 0.16 0 0 0 0 0 0s-0.16 0.16-0.16 0.16c0 0 0 0-0.16 0.16 0 0 0 0-0.16 0.16 0 0 0 0-0.16 0.16 0 0 0 0-0.16 0.16 0 0 0 0-0.16 0.16 0 0 0 0-0.16 0.16 0 0-0.16 0.16-0.16 0.16s0 0 0 0 0 0.16-0.16 0.16c0 0 0 0 0 0s0 0-0.16 0.16c0 0 0 0 0 0-0.16 0.16-0.32 0.32-0.32 0.48 0 0 0 0 0 0s0 0.16-0.16 0.16c0 0 0 0 0 0s0 0.16-0.16 0.16-0.16 0.16-0.32 0.32v0c0 0-0.16 0.16-0.16 0.16s0 0 0 0-0.16 0.16-0.16 0.16v0c-0.16 0.16-0.32 0.32-0.48 0.48 0 0 0 0 0 0s-0.16 0.16-0.16 0.16c0 0 0 0 0 0-0.16 0.16-0.32 0.48-0.64 0.64v0c-1.76 1.92-3.52 4-5.12 5.92l10.72 8.96c-9.92 12-19.2 24.64-27.52 37.76l-12.96-8.64c-2.72 4-5.28 8.16-7.84 12.32v0c0 0 0 0.16-0.16 0.16 0 0 0 0 0 0-0.16 0.16-0.32 0.48-0.48 0.64 0 0 0 0 0 0s0 0.16-0.16 0.16c0 0 0 0 0 0 0 0.16-0.16 0.16-0.16 0.32 0 0 0 0 0 0s0 0.16 0 0.16c0 0 0 0 0 0.16 0 0 0 0.16 0 0.16s0 0 0 0.16c0 0 0 0 0 0.16 0 0 0 0.16-0.16 0.16 0 0 0 0.16-0.16 0.16 0 0 0 0.16 0 0.16s0 0 0 0.16c0 0 0 0 0 0.16 0 0 0 0 0 0.16 0 0 0 0.16-0.16 0.16 0 0 0 0 0 0s-0.16 0.16-0.16 0.16c0 0 0 0 0 0s0 0.16-0.16 0.16c0 0 0 0 0 0s0 0.16-0.16 0.16c0 0 0 0 0 0s-0.16 0.16-0.16 0.16c0 0 0 0 0 0s-0.16 0.16-0.16 0.16c0 0 0 0 0 0s0 0.16-0.16 0.16c0 0 0 0 0 0s-0.16 0.16-0.16 0.16c0 0.16-0.16 0.16-0.16 0.32 0 0 0 0 0 0s-0.16 0.16-0.16 0.16c0 0 0 0 0 0-0.16 0.16-0.32 0.48-0.48 0.8 0 0 0 0 0 0 0 0.16-0.16 0.16-0.16 0.16s0 0 0 0c-0.16 0.32-0.32 0.48-0.48 0.8 0 0 0 0 0 0-5.92 9.92-11.36 20.16-16.32 30.72l15.040 7.2c-5.6 12.48-10.72 25.28-15.040 38.4l-15.84-5.44c-3.36 9.92-6.4 20-9.12 30.080 0 0 0 0 0 0 0 0.32-0.16 0.64-0.16 0.8 0 0 0 0 0 0 0 0.32-0.16 0.64-0.16 0.8 0 0 0 0 0 0 0 0.32-0.16 0.48-0.16 0.8 0 0 0 0 0 0 0 0.32-0.16 0.64-0.16 0.8 0 0 0 0 0 0 0 0.16 0 0.16 0 0.32 0 0 0 0 0 0 0 0.16-0.16 0.32-0.16 0.64 0 0 0 0 0 0 0 0.16 0 0.16 0 0.32 0 0 0 0 0 0 0 0.16-0.16 0.32-0.16 0.64 0 0 0 0 0 0 0 0.16 0 0.16 0 0.32 0 0 0 0 0 0 0 0.32-0.16 0.48-0.16 0.8 0 0 0 0 0 0 0 0.32-0.16 0.64-0.16 0.8 0 0 0 0 0 0 0 0.32-0.16 0.64-0.16 0.8 0 0 0 0 0 0 0 0.32-0.16 0.64-0.16 0.8 0 0 0 0 0 0 0 0.32-0.16 0.64-0.16 0.8 0 0 0 0 0 0-1.12 5.12-2.24 10.4-3.2 15.68l17.12 3.2c-2.24 12.96-3.84 26.080-4.8 39.36l-13.76-0.96v56.96l13.76-0.96c0.96 13.28 2.56 26.4 4.8 39.36l-17.12 3.2c0.96 5.28 2.080 10.56 3.2 15.68 0 0 0 0 0 0 0 0.32 0.16 0.64 0.16 0.8 0 0 0 0 0 0 0 0.32 0.16 0.64 0.16 0.8 0 0 0 0 0 0 0 0.32 0.16 0.64 0.16 0.8 0 0 0 0 0 0 0 0.32 0.16 0.64 0.16 0.8 0 0 0 0 0 0 0 0.32 0.16 0.48 0.16 0.8 0 0 0 0 0 0 0 0.16 0 0.16 0 0.32 0 0 0 0 0 0 0 0.16 0.16 0.32 0.16 0.64 0 0 0 0 0 0 0 0.16 0 0.16 0 0.32v0c0 0.16 0.16 0.32 0.16 0.64 0 0 0 0 0 0 0 0.16 0 0.16 0 0.32 0 0 0 0 0 0 0 0.32 0.16 0.64 0.16 0.8 0 0 0 0 0 0 0 0.32 0.16 0.48 0.16 0.8 0 0 0 0 0 0 0 0.32 0.16 0.64 0.16 0.8 0 0 0 0 0 0 0 0.32 0.16 0.64 0.16 0.8 0 0 0 0 0 0 2.56 10.24 5.6 20.32 9.12 30.080l15.84-5.44c4.32 13.12 9.28 25.92 15.040 38.4l-15.040 7.2c4.96 10.56 10.4 20.8 16.32 30.72 0 0 0 0 0 0 0.16 0.32 0.32 0.48 0.48 0.8 0 0 0 0 0 0 0 0.16 0.16 0.16 0.16 0.16s0 0 0 0c0.16 0.16 0.32 0.48 0.48 0.8 0 0 0 0 0 0s0.16 0.16 0.16 0.16c0 0 0 0 0 0 0 0.16 0.16 0.16 0.16 0.32v0c0 0 0.16 0.16 0.16 0.16s0 0 0 0 0 0.16 0.16 0.16c0 0 0 0 0 0s0.16 0.16 0.16 0.16c0 0 0 0 0 0s0.16 0.16 0.16 0.16c0 0 0 0 0 0s0 0.16 0.16 0.16c0 0 0 0 0 0s0 0.16 0.16 0.16c0 0 0 0 0 0s0.16 0.16 0.16 0.16c0 0 0 0 0 0s0 0.16 0.16 0.16c0 0 0 0 0 0.16 0 0 0 0.16 0 0.16s0 0 0 0.16c0 0 0 0.16 0 0.16s0 0.16 0.16 0.16c0 0 0 0.16 0.16 0.16 0 0 0 0 0 0.16 0 0 0 0 0 0.16 0 0 0 0.16 0 0.16s0 0 0 0.16c0 0 0 0.16 0 0.16s0 0 0 0c0 0.16 0.16 0.16 0.16 0.32 0 0 0 0 0 0s0 0.16 0.16 0.16c0 0 0 0 0 0 0.16 0.16 0.32 0.48 0.48 0.64 0 0 0 0 0 0s0 0.16 0.16 0.16v0c2.56 4.16 5.12 8.16 7.84 12.32l12.96-8.64c8.48 13.12 17.6 25.76 27.52 37.76l-10.72 8.96c1.76 2.080 3.36 4 5.12 5.92v0c0.16 0.16 0.32 0.48 0.64 0.64 0 0 0 0 0 0s0.16 0.16 0.16 0.16c0 0 0 0 0 0 0.16 0.16 0.32 0.32 0.48 0.48v0c0 0 0.16 0.16 0.16 0.16s0 0 0 0 0.16 0.16 0.16 0.16v0c0.16 0.16 0.16 0.16 0.32 0.32 0 0 0 0.16 0.16 0.16 0 0 0 0 0 0s0 0.16 0.16 0.16c0 0 0 0 0 0 0.16 0.16 0.32 0.32 0.32 0.48 0 0 0 0 0 0s0 0.16 0.16 0.16c0 0 0 0 0 0s0 0.16 0.16 0.16c0 0 0 0 0 0s0.16 0.16 0.16 0.16c0 0 0 0 0.16 0.16 0 0 0 0 0.16 0.16 0 0 0 0 0.16 0.16 0 0 0 0 0.16 0.16 0 0 0 0 0.16 0.16 0 0 0 0 0.16 0.16 0 0 0.16 0.16 0.16 0.16s0 0 0 0 0.16 0.16 0.16 0.16c0 0 0 0 0 0.16 0 0 0 0.16 0.16 0.16 0 0 0 0 0 0s0.16 0.16 0.16 0.16c0 0 0 0 0 0s0.16 0.16 0.16 0.16c0 0 0 0 0 0s0.16 0.16 0.16 0.16c0 0 0 0 0 0s0.16 0.16 0.16 0.16c0 0 0 0 0 0s0.16 0.16 0.16 0.16v0c0 0 0.16 0.16 0.16 0.16s0 0 0 0 0.16 0.16 0.16 0.16c0 0 0 0 0 0s0.16 0.16 0.16 0.16c0 0 0 0 0 0s0.16 0.16 0.16 0.16c0 0 0 0 0 0s0.16 0.16 0.16 0.16c0 0 0 0 0 0s0.16 0.16 0.16 0.16c0 0 0 0 0 0 0.16 0.16 0.32 0.32 0.32 0.48 0 0 0 0 0 0s0.16 0.16 0.16 0.16c0 0 0 0 0 0 0.16 0.16 0.32 0.48 0.64 0.64 0 0 0 0 0 0s0.16 0.16 0.16 0.16c0 0 0 0 0 0 6.88 7.36 14.080 14.4 21.44 21.28-67.52 61.12-155.84 96.8-252.48 96.8s-184.96-35.68-252.48-94.56c7.36-6.72 14.56-13.92 21.44-21.28 0 0 0 0 0 0s0.16-0.16 0.16-0.16c0 0 0 0 0 0 0.16-0.16 0.32-0.48 0.64-0.64 0 0 0 0 0 0s0.16-0.16 0.16-0.16c0 0 0 0 0 0 0.16-0.16 0.32-0.32 0.32-0.48 0 0 0 0 0 0s0.16-0.16 0.16-0.16c0 0 0 0 0 0s0.16-0.16 0.16-0.16c0 0 0 0 0 0s0.16-0.16 0.16-0.16c0 0 0 0 0 0s0.16-0.16 0.16-0.16c0 0 0 0 0 0s0.16-0.16 0.16-0.16c0 0 0 0 0 0s0.16-0.16 0.16-0.16v0c0 0 0.16-0.16 0.16-0.16s0 0 0 0 0.16-0.16 0.16-0.16c0 0 0 0 0 0s0.16-0.16 0.16-0.16c0 0 0 0 0 0s0.16-0.16 0.16-0.16c0 0 0 0 0 0s0.16-0.16 0.16-0.16c0 0 0 0 0 0s0-0.16 0.16-0.16c0 0 0 0 0-0.16 0 0 0.16-0.16 0.16-0.16s0 0 0 0 0.16-0.16 0.16-0.16c0 0 0 0 0.16-0.16 0 0 0 0 0.16-0.16 0 0 0 0 0.16-0.16 0 0 0 0 0.16-0.16 0 0 0 0 0.16-0.16 0 0 0 0 0.16-0.16 0 0 0.16-0.16 0.16-0.16s0 0 0 0 0-0.16 0.16-0.16c0 0 0 0 0 0s0-0.16 0.16-0.16c0 0 0 0 0 0 0.16-0.16 0.32-0.32 0.32-0.48 0 0 0 0 0 0s0-0.16 0.16-0.16c0 0 0 0 0 0s0-0.16 0.16-0.16v0c0.16-0.16 0.16-0.16 0.32-0.32v0c0 0 0.16-0.16 0.16-0.16s0 0 0 0 0.16-0.16 0.16-0.16v0c0.16-0.16 0.32-0.32 0.48-0.48 0 0 0 0 0 0s0.16-0.16 0.16-0.16c0 0 0 0 0 0 0.16-0.16 0.32-0.48 0.64-0.64v0c1.76-1.92 3.52-4 5.12-5.92l-10.72-8.96c9.92-12 19.2-24.64 27.52-37.76l12.96 8.64c2.72-4 5.28-8.16 7.84-12.32v0c0 0 0-0.16 0.16-0.16 0 0 0 0 0 0 0.16-0.16 0.32-0.48 0.48-0.64 0 0 0 0 0 0s0-0.16 0.16-0.16c0 0 0 0 0 0 0-0.16 0.16-0.16 0.16-0.32 0 0 0 0 0 0s0-0.16 0.16-0.16c0 0 0 0 0-0.16 0 0 0-0.16 0-0.16s0 0 0-0.16c0 0 0 0 0-0.16 0 0 0-0.16 0.16-0.16 0 0 0-0.16 0.16-0.16 0 0 0-0.16 0-0.16s0 0 0-0.16c0 0 0-0.16 0-0.16s0 0 0-0.16c0 0 0-0.16 0.16-0.16 0 0 0 0 0 0s0.16-0.16 0.16-0.16c0 0 0 0 0 0s0-0.16 0.16-0.16c0 0 0 0 0 0s0-0.16 0.16-0.16c0 0 0 0 0 0s0.16-0.16 0.16-0.16c0 0 0 0 0 0s0.16-0.16 0.16-0.16c0 0 0 0 0 0s0-0.16 0.16-0.16c0 0 0 0 0 0s0.16-0.16 0.16-0.16v0c0-0.16 0.16-0.16 0.16-0.32 0 0 0 0 0 0s0.16-0.16 0.16-0.16c0 0 0 0 0 0 0.16-0.16 0.32-0.48 0.48-0.8 0 0 0 0 0 0 0-0.16 0.16-0.16 0.16-0.16s0 0 0 0c0.16-0.32 0.32-0.48 0.48-0.8 0 0 0 0 0 0 5.92-9.92 11.36-20.16 16.32-30.72l-15.040-7.2c5.6-12.48 10.72-25.28 15.040-38.4l15.84 5.44c3.36-9.92 6.4-20 9.12-30.080 0 0 0 0 0 0 0-0.32 0.16-0.64 0.16-0.8 0 0 0 0 0 0 0-0.32 0.16-0.64 0.16-0.8 0 0 0 0 0 0 0-0.32 0.16-0.48 0.16-0.8 0 0 0 0 0 0 0-0.32 0.16-0.64 0.16-0.8 0 0 0 0 0 0 0-0.16 0-0.16 0-0.32 0 0 0 0 0 0 0-0.16 0.16-0.32 0.16-0.64v0c0-0.16 0-0.16 0-0.32 0 0 0 0 0 0 0-0.16 0.16-0.32 0.16-0.64 0 0 0 0 0 0 0-0.16 0-0.16 0-0.32 0 0 0 0 0 0 0-0.32 0.16-0.48 0.16-0.8 0 0 0 0 0 0 0-0.32 0.16-0.64 0.16-0.8 0 0 0 0 0 0 0-0.32 0.16-0.64 0.16-0.8 0 0 0 0 0 0 0-0.32 0.16-0.64 0.16-0.8 0 0 0 0 0 0 0-0.32 0.16-0.64 0.16-0.8 0 0 0 0 0 0 1.12-5.12 2.24-10.4 3.2-15.68l-17.12-3.2c2.24-12.96 3.84-26.080 4.8-39.36l13.76 0.96v-56.96l-13.76 0.96c-0.96-13.28-2.56-26.4-4.8-39.36l17.12-3.2c-0.96-5.28-2.080-10.56-3.2-15.68 0 0 0 0 0 0 0-0.32-0.16-0.64-0.16-0.8 0 0 0 0 0 0 0-0.32-0.16-0.64-0.16-0.8 0 0 0 0 0 0 0-0.32-0.16-0.64-0.16-0.8 0 0 0 0 0 0 0-0.32-0.16-0.64-0.16-0.8 0 0 0 0 0 0 0-0.32-0.16-0.64-0.16-0.8 0 0 0 0 0 0 0-0.16 0-0.16 0-0.32 0 0 0 0 0 0 0-0.16-0.16-0.32-0.16-0.64 0 0 0 0 0 0 0-0.16 0-0.16 0-0.32 0 0 0 0 0 0 0-0.16-0.16-0.32-0.16-0.64 0 0 0 0 0 0 0-0.16 0-0.16 0-0.32 0 0 0 0 0 0 0-0.32-0.16-0.64-0.16-0.8 0 0 0 0 0 0 0-0.32-0.16-0.64-0.16-0.8 0 0 0 0 0 0 0-0.32-0.16-0.64-0.16-0.8 0 0 0 0 0 0 0-0.32-0.16-0.64-0.16-0.8 0 0 0 0 0 0-2.56-10.24-5.6-20.32-9.12-30.080l-15.84 5.44c-4.32-13.12-9.28-25.92-15.040-38.4l15.040-7.2c-4.96-10.56-10.4-20.8-16.32-30.72 0 0 0 0 0 0-0.16-0.32-0.32-0.48-0.48-0.8 0 0 0 0 0 0 0-0.16-0.16-0.16-0.16-0.16s0 0 0 0c-0.16-0.16-0.32-0.48-0.48-0.8 0 0 0 0 0 0s-0.16-0.16-0.16-0.16c0 0 0 0 0 0 0-0.16-0.16-0.16-0.16-0.32 0 0-0.16-0.16-0.16-0.16s0 0 0 0 0-0.16-0.16-0.16c0 0 0 0 0 0s-0.16-0.16-0.16-0.16c0 0 0 0 0 0s-0.16-0.16-0.16-0.16c0 0 0 0 0 0s0-0.16-0.16-0.16c0 0 0 0 0 0s0-0.16-0.16-0.16c0 0 0 0 0 0s-0.16-0.16-0.16-0.16c0 0 0 0 0 0s0-0.16-0.16-0.16c0 0 0 0 0-0.16 0 0 0 0 0-0.16 0 0 0 0 0-0.16 0 0 0-0.16 0-0.16s0-0.16-0.16-0.16c0 0 0-0.16-0.16-0.16 0 0 0 0 0-0.16 0 0 0 0 0-0.16 0 0 0-0.16 0-0.16s0 0 0-0.16c0 0 0-0.16-0.16-0.16 0 0 0 0 0 0 0-0.16-0.16-0.16-0.16-0.32 0 0 0 0 0 0s0-0.16-0.16-0.16c0 0 0 0 0 0-0.16-0.16-0.32-0.48-0.48-0.64 0 0 0 0 0 0s0-0.16-0.16-0.16v0c-2.56-4.16-5.12-8.16-7.84-12.32l-12.96 8.64c-8.48-13.12-17.6-25.76-27.52-37.76l10.72-8.96c-1.76-2.080-3.36-4-5.12-5.92v0c-0.16-0.16-0.32-0.48-0.64-0.64 0 0 0 0 0 0s-0.16-0.16-0.16-0.16c0 0 0 0 0 0-0.16-0.16-0.32-0.32-0.48-0.48v0c0 0-0.16-0.16-0.16-0.16s0 0 0 0-0.16-0.16-0.16-0.16v0c-0.16-0.16-0.16-0.16-0.32-0.32v0c0 0-0.16-0.16-0.16-0.16s0 0 0 0 0-0.16-0.16-0.16c0 0 0 0 0 0-0.16-0.16-0.32-0.32-0.32-0.48 0 0 0 0 0 0s0 0-0.16-0.16c0 0 0 0 0 0s0-0.16-0.16-0.16c0 0 0 0 0 0s-0.16-0.16-0.16-0.16c0 0 0 0-0.16-0.16 0 0 0 0-0.16-0.16 0 0 0 0-0.16-0.16 0 0 0 0-0.16-0.16 0 0 0 0-0.16-0.16 0 0 0 0-0.16-0.16 0 0-0.16-0.16-0.16-0.16s0 0 0 0-0.16-0.16-0.16-0.16c0 0 0 0 0-0.16 0 0 0 0-0.16-0.16 0 0 0 0 0 0s-0.16-0.16-0.16-0.16c0 0 0 0 0 0s-0.16-0.16-0.16-0.16c0 0 0 0 0 0s-0.16-0.16-0.16-0.16c0 0 0 0 0 0s-0.16-0.16-0.16-0.16c0 0 0 0 0 0s-0.16-0.16-0.16-0.16v0c0 0-0.16-0.16-0.16-0.16s0 0 0 0-0.16-0.16-0.16-0.16c0 0 0 0 0 0s-0.16-0.16-0.16-0.16c0 0 0 0 0 0s-0.16-0.16-0.16-0.16c0 0 0 0 0 0s-0.16-0.16-0.16-0.16c0 0 0 0 0 0s-0.16-0.16-0.16-0.16c0 0 0 0 0 0-0.16-0.16-0.32-0.32-0.32-0.48 0 0 0 0 0 0s-0.16-0.16-0.16-0.16c0 0 0 0 0 0-0.16-0.16-0.32-0.48-0.64-0.64 0 0 0 0 0 0s-0.16-0.16-0.16-0.16c0 0 0 0 0 0-6.88-7.36-14.080-14.4-21.44-21.28 67.52-61.12 155.84-96.8 252.48-96.8s184.96 35.68 252.48 94.56c-7.52 6.88-14.56 13.92-21.44 21.28v0zM289.44 268l-13.6 9.12c9.12 13.44 17.28 27.84 24.16 42.56l13.92-6.56c1.28 2.72 2.4 5.44 3.52 8.16 3.84 9.12 7.36 18.4 10.4 27.68l-14.4 4.96c5.28 15.36 9.44 31.2 12.48 47.2l14.4-2.72c2.080 12.16 3.52 24.32 4.48 36.64l-14.4 1.12c0.64 8.16 0.8 16.32 0.8 24.48s-0.32 16.32-0.8 24.48l14.4 1.12c-0.8 12.32-2.4 24.64-4.48 36.64l-14.4-2.72c-2.88 16-7.2 31.84-12.48 47.2l14.4 4.96c-3.040 9.28-6.56 18.56-10.4 27.68-1.12 2.72-2.4 5.44-3.52 8.16l-13.92-6.56c-6.88 14.72-15.040 28.96-24.16 42.56l13.6 9.12c-7.84 12.32-16.48 24.16-25.92 35.52l-13.76-11.68c-9.44 11.2-19.68 21.92-30.56 31.68-56.96-66.56-91.2-153.28-91.2-248s34.24-181.44 91.040-248.32c10.88 9.92 21.12 20.48 30.56 31.68l13.76-11.68c9.6 11.36 18.24 23.2 26.080 35.52v0zM804.96 709.12c-10.88-9.92-21.12-20.48-30.56-31.68l-13.76 11.68c-9.44-11.36-18.080-23.2-25.92-35.52l13.6-9.12c-9.12-13.44-17.28-27.84-24.16-42.56l-13.92 6.56c-1.28-2.72-2.4-5.44-3.52-8.16-3.84-9.12-7.36-18.4-10.4-27.68l14.4-4.96c-5.28-15.36-9.44-31.2-12.48-47.2l-14.4 2.72c-2.080-12.16-3.52-24.32-4.48-36.64l14.4-1.12c-0.64-8.16-0.8-16.32-0.8-24.48s0.32-16.32 0.8-24.48l-14.4-1.12c0.8-12.32 2.4-24.64 4.48-36.64l14.4 2.72c2.88-16 7.2-31.84 12.48-47.2l-14.4-4.96c3.040-9.28 6.56-18.56 10.4-27.68 1.12-2.72 2.4-5.44 3.52-8.16l13.92 6.56c6.88-14.72 15.040-28.96 24.16-42.56l-13.6-9.12c7.84-12.32 16.48-24.16 25.92-35.52l13.76 11.68c9.44-11.2 19.68-21.92 30.56-31.68 56.8 66.88 91.040 153.6 91.040 248.32s-34.24 181.12-91.040 248z" />
<glyph unicode="&#xe602;" glyph-name="basketball" d="M920.8 512c-5.6 84.16-38.24 160.8-89.28 221.44-6.080-5.12-11.84-10.56-17.44-16.32-55.52-55.52-88.64-127.68-94.56-205.12h201.28zM791.2 774.72c-61.6 54.24-140.8 89.12-228 94.88v-357.6h98.4c6.88 104.48 55.68 197.6 129.6 262.72zM261.28 717.12c-5.6 5.6-11.52 11.040-17.44 16.32-51.2-60.64-83.84-137.28-89.44-221.44h201.28c-5.92 77.6-38.88 149.6-94.4 205.12zM413.6 512h98.4v357.6c-87.2-5.76-166.4-40.48-228-94.88 73.92-65.12 122.72-158.24 129.6-262.72zM814.080 255.52c5.6-5.6 11.52-11.040 17.44-16.32 51.040 60.64 83.68 137.44 89.28 221.44h-201.44c6.080-77.44 39.040-149.44 94.72-205.12zM661.6 460.8h-98.4v-357.6c87.2 5.76 166.4 40.48 228 94.88-73.92 65.12-122.72 158.24-129.6 262.72zM154.4 460.8c5.6-84.16 38.080-160.8 89.28-221.44 6.080 5.12 11.84 10.56 17.44 16.32 55.52 55.52 88.64 127.68 94.56 205.28 0.16-0.16-201.28-0.16-201.28-0.16zM284 198.080c61.6-54.24 140.8-89.12 228-94.88v357.6h-98.4c-6.88-104.48-55.68-197.6-129.6-262.72z" />
<glyph unicode="&#xe603;" glyph-name="golfball" d="M767.2 564c0-28.16 23.040-51.2 51.2-51.2 0 0 0 0 0 0-16-38.24-38.88-72.96-67.2-102.4h-86.56c0-20.8 12.64-38.88 30.56-46.88-52.8-35.040-116-55.52-184.16-55.52s-131.36 20.48-184.16 55.52c17.92 8 30.56 25.92 30.56 46.88h-86.56c-28.32 29.44-51.2 64.16-67.2 102.4 0 0 0 0 0 0 28.16 0 51.2 23.040 51.2 51.2h-67.84c-5.76 24.64-8.96 50.4-8.96 76.8 0 183.84 148.96 332.8 332.8 332.8s332.8-148.96 332.8-332.8c0-26.4-3.040-52.16-8.96-76.8h-67.52zM613.6 512.8c28.16 0 51.2 23.040 51.2 51.2h-102.4c0-28.16 23.040-51.2 51.2-51.2zM511.2 359.2c28.16 0 51.2 23.040 51.2 51.2h-102.4c0-28.16 23.040-51.2 51.2-51.2zM408.8 512.8c28.16 0 51.2 23.040 51.2 51.2h-102.4c0-28.16 23.040-51.2 51.2-51.2zM306.4 666.4c28.16 0 51.2 23.040 51.2 51.2h-102.4c0-28.16 23.040-51.2 51.2-51.2zM357.6 871.2c0-28.16 23.040-51.2 51.2-51.2s51.2 23.040 51.2 51.2h-102.4zM460 717.6c0-28.16 23.040-51.2 51.2-51.2s51.2 23.040 51.2 51.2h-102.4zM562.4 871.2c0-28.16 23.040-51.2 51.2-51.2s51.2 23.040 51.2 51.2h-102.4zM664.8 717.6c0-28.16 23.040-51.2 51.2-51.2s51.2 23.040 51.2 51.2h-102.4zM621.76 272.96l-59.36-118.56v-204.8h-102.4v204.8l-59.36 118.56c35.040-10.56 72.16-16.16 110.56-16.16s75.52 5.76 110.56 16.16z" />
<glyph unicode="&#xe604;" glyph-name="cricketball" d="M466.88 53.76l452.16 452.16c13.12-119.36-26.080-243.2-117.44-334.72s-215.36-130.56-334.72-117.44zM303.84 107.84c-29.12 17.12-56.48 38.24-81.6 63.36-24.96 24.96-46.080 52.48-63.36 81.6l561.28 560.96c29.12-17.12 56.48-38.24 81.6-63.36 24.96-24.96 46.080-52.48 63.36-81.6l-561.28-560.96zM104.96 415.68c-13.12 119.36 25.92 243.36 117.44 334.72s215.36 130.56 334.72 117.44l-452.16-452.16zM618.080 856.48c18.24-4.96 36.32-11.040 53.92-18.56l-537.12-537.12c-7.52 17.6-13.6 35.68-18.56 53.92l501.76 501.76zM889.12 620.8c7.52-17.6 13.6-35.68 18.56-53.92l-501.76-501.76c-18.24 4.96-36.32 11.040-53.92 18.56l537.12 537.12z" />
<glyph unicode="&#xe605;" glyph-name="bowling" d="M736.8 665.6c-13.28 21.28-20 46.88-20 76.8 0 24.48 6.72 43.52 20.48 56.8s32.32 20 56.32 20 42.88-6.72 56.32-20 20.48-32.32 20.48-56.8c0-29.92-6.72-55.52-20-76.8h-113.6zM764 563.2c2.72 9.6 4 18.080 4 25.6 0 9.12-1.12 17.6-3.2 25.6h57.6c-2.080-8-3.2-16.48-3.2-25.6 0-6.88 1.28-15.52 4-25.6h-59.2zM743.2 512h100.8c4.32-8.48 14.72-28 31.2-58.4s28.48-54.72 35.52-72.8 10.88-34.080 10.88-48c0-24-0.32-43.68-0.8-59.2s-1.92-36-4.48-61.6-6.72-47.68-13.12-65.92-14.4-32.96-24-43.52h-170.4c5.28 54.88 8 126.4 8 214.4 0 41.12-4.8 80.32-14.4 117.6 1.12 2.080 6.88 13.12 17.6 32.8 10.72 19.52 18.4 34.56 23.2 44.64zM409.6 51.2c-11.68 11.68-21.44 29.12-29.12 52.48s-12.96 50.72-15.68 82.4-4.48 57.12-5.12 76-1.28 42.4-1.28 70.72c0 16 3.68 33.28 11.2 52s19.52 42.080 36 70.4c16.48 28.32 27.2 47.2 32 56.8h148.8c4.8-9.12 15.52-27.84 32-56.32s28.48-52.16 36-70.72 11.2-36 11.2-52c0-28.32-0.32-51.84-1.28-70.72s-2.56-44.32-5.12-76-7.84-59.2-15.68-82.4-17.44-40.96-29.12-52.64h-204.8zM436.8 665.6c-5.92 10.080-10.4 18.72-13.6 25.6s-6.24 17.28-9.28 31.2-4.32 29.12-4.32 45.6c0 28.32 9.92 52.48 30.080 72.32s44 30.080 72.32 30.080c28.32 0 52.48-9.92 72.32-30.080s30.080-44 30.080-72.32c0-16.48-1.44-31.68-4.48-45.6s-6.080-24.32-9.28-31.2-7.68-15.52-13.6-25.6h-150.24zM315.2 102.4h-170.4c-9.6 10.72-17.6 25.28-24 43.52s-10.88 40.32-13.12 65.92-3.84 46.080-4.48 61.6-0.8 35.36-0.8 59.36c0 13.92 3.52 29.92 10.88 48s19.040 42.4 35.52 72.8 26.88 49.92 31.2 58.4h100.8c3.68-7.52 7.84-15.52 12.48-24s9.6-18.080 15.2-28.8c5.6-10.72 9.92-18.88 13.12-24.8-9.6-37.28-14.4-76.48-14.4-117.6 0-88.48 2.72-160 8-214.4zM200.8 563.2c2.72 9.6 4 18.080 4 25.6 0 9.12-1.12 17.6-3.2 25.6h57.6c-2.080-8-3.2-16.48-3.2-25.6 0-7.52 1.28-16 4-25.6h-59.2zM173.6 665.6c-13.28 21.28-20 46.88-20 76.8 0 24.48 6.72 43.52 20.48 56.8s32.32 20 56.32 20 42.88-6.72 56.32-20 20.48-32.32 20.48-56.8c0-29.92-6.72-55.52-20-76.8h-113.6zM457.6 563.2c2.080 9.6 3.2 18.080 3.2 25.6 0 9.12-0.8 17.6-2.4 25.6h107.2c-1.6-8-2.4-16.48-2.4-25.6 0-7.52 1.12-16 3.2-25.6h-108.8z" />
<glyph unicode="&#xe606;" glyph-name="ice-hockey" d="M794.4 569.28l-208.48-421.12c-12.32-24.8-45.6-45.76-73.76-45.76h-307.52c-27.84 0-51.040 22.88-51.040 51.2v51.36c0 28.48 22.72 51.2 50.72 51.2h256.48l193.28 384.8 140.32-71.68zM817.12 615.040l76.16 153.28c13.92 28.16 2.88 62.24-25.12 76.32l-38.88 19.52c-27.84 14.080-61.76 3.040-75.52-24.48l-76.8-153.12 140.16-71.52zM332.8 358.4c42.4 0 76.8 34.4 76.8 76.8s-34.4 76.8-76.8 76.8-76.8-34.4-76.8-76.8c0-42.4 34.4-76.8 76.8-76.8v0z" />
<glyph unicode="&#xe607;" glyph-name="football" d="M916.96 743.2c-6.72 60.96-61.6 115.84-122.56 122.56-165.6 18.24-380.16-12.64-527.36-160-147.2-147.2-178.080-361.92-159.84-527.36 6.72-60.96 61.6-115.84 122.56-122.56 165.44-18.24 380.16 12.64 527.36 159.84 147.2 147.36 178.080 361.92 159.84 527.52v0zM362.56 405.44c11.84 11.84 31.040 11.84 43.040 0l51.2-51.2c11.84-11.84 11.84-31.040 0-43.040-5.92-5.92-13.76-8.96-21.44-8.96s-15.52 3.040-21.44 8.96l-51.2 51.2c-12.16 12-12.16 31.2-0.16 43.040zM375.84 104.96c-46.4 23.52-89.28 54.56-127.2 92.48s-68.96 80.96-92.64 127.36c2.88 35.040 8.64 72.64 18.56 111.36 3.36 13.12 7.2 26.080 11.36 38.72 15.040-84.16 55.36-161.44 116.96-223.2 61.6-61.6 139.040-101.92 223.040-116.96-53.6-17.6-105.76-26.080-150.080-29.76zM559.040 413.76c-5.92-5.92-13.76-8.96-21.44-8.96s-15.52 3.040-21.44 8.96l-51.2 51.2c-11.84 11.84-11.84 31.040 0 43.040 11.84 11.84 31.2 11.84 43.040 0l51.2-51.2c11.84-12 11.84-31.2-0.16-43.040zM661.44 516.16c-5.92-5.92-13.76-8.96-21.44-8.96s-15.52 3.040-21.44 8.96l-51.2 51.2c-11.84 11.84-11.84 31.040 0 43.040s31.040 11.84 43.040 0l51.2-51.2c11.84-12 11.84-31.2-0.16-43.040zM849.44 485.44c-3.36-13.12-7.2-26.080-11.36-38.72-15.040 84.16-55.36 161.44-116.96 223.2-61.6 61.6-139.040 101.92-223.040 116.96 53.6 17.6 105.76 26.080 150.080 29.76 46.4-23.52 89.28-54.56 127.2-92.48s68.96-80.96 92.64-127.36c-2.88-35.040-8.64-72.64-18.56-111.36v0z" />
<glyph unicode="&#xe608;" glyph-name="poolball" d="M512 870.4c-226.24 0-409.6-183.36-409.6-409.6s183.36-409.6 409.6-409.6 409.6 183.36 409.6 409.6-183.36 409.6-409.6 409.6zM512 281.6c-113.12 0-204.8 91.68-204.8 204.8s91.68 204.8 204.8 204.8 204.8-91.68 204.8-204.8-91.68-204.8-204.8-204.8zM588.96 486.4c16 13.44 25.44 31.36 25.44 51.2 0 43.040-44.96 76.8-102.4 76.8s-102.4-33.76-102.4-76.8c0-19.84 9.6-37.76 25.44-51.2-16-13.44-25.44-31.36-25.44-51.2 0-43.040 44.96-76.8 102.4-76.8s102.4 33.76 102.4 76.8c0 19.84-9.6 37.76-25.44 51.2zM460.8 537.6c0 10.4 20 25.6 51.2 25.6s51.2-15.2 51.2-25.6c0-10.4-20-25.6-51.2-25.6 0 0 0 0 0 0s0 0 0 0c-31.2 0-51.2 15.2-51.2 25.6zM512 409.6c-31.2 0-51.2 15.2-51.2 25.6s20 25.6 51.2 25.6c0 0 0 0 0 0s0 0 0 0c31.2 0 51.2-15.2 51.2-25.6s-20-25.6-51.2-25.6z" />
<glyph unicode="&#xe609;" glyph-name="table-tennis" d="M870.4 742.4c0-42.4-34.4-76.8-76.8-76.8s-76.8 34.4-76.8 76.8 34.4 76.8 76.8 76.8c42.4 0 76.8-34.4 76.8-76.8zM878.56 138.88l-152.48 142.72c-25.44 20-17.6 25.6-7.52 51.2 0 0 0 0.16 0 0.16 48.64 107.52 23.84 244.32-71.2 339.52-63.36 63.36-145.28 95.52-224.8 95.52-70.88 0-139.68-25.6-191.52-77.44-109.92-109.92-101.92-296.32 18.080-416.32 63.36-63.36 145.28-95.52 224.8-95.52 39.68 0 78.88 8 114.72 24.32 0 0 0.16 0 0.16 0.16 12.8 4.96 20.64 9.28 27.84 9.28s13.6-4.32 23.36-16.8l142.72-152.48c7.040-8.96 16.8-13.44 26.72-13.44 8.64 0 17.28 3.36 24.16 10.4l48 47.84c15.040 15.040 13.6 37.92-3.040 50.88v0 0zM364.32 261.92l295.52 295.52c8.8-18.24 15.36-37.28 19.84-56.96l-258.4-258.4c-14.72 3.2-29.28 7.84-43.52 13.76-4.64 1.92-9.12 3.84-13.44 6.080v0 0z" />
<glyph unicode="&#xe610;" glyph-name="tennis" d="M768 281.6c-51.2 51.2-51.2 128-51.2 230.4v0c0 86.080-36.8 177.76-108.8 249.6-71.84 71.84-163.36 108.8-249.44 108.8-69.12 0-134.72-23.84-183.52-72.64-109.6-109.6-93.44-303.52 36.16-432.96 71.84-71.84 163.36-108.8 249.44-108.8 102.56 0 179.36 0 230.56-51.2l153.6-153.6c51.2 0 76.8 25.6 76.8 76.8l-153.6 153.6zM512 765.6c19.68-12.64 38.24-27.52 55.36-44.64s32-35.52 44.64-55.36h-100v100zM307.2 360.8c-19.68 12.64-38.24 27.52-55.36 44.64s-32 35.52-44.64 55.36h100v-100zM307.2 512h-126.56c-10.88 26.72-17.44 54.080-19.84 81.44-0.64 7.040-0.8 14.080-0.8 20.96h147.2v-102.4zM307.2 665.6h-141.44c8.32 35.2 25.12 66.56 50.080 91.36 18.24 18.24 39.84 32.16 64.16 41.6 8.8 3.36 17.76 6.24 27.2 8.32v-141.28zM460.8 313.6c0 0-0.16 0-0.16 0-34.24 0-68.96 7.2-102.24 20.64v126.56h102.4v-147.2zM460.8 512h-102.4v102.4h102.4v-102.4zM460.8 665.6h-102.4v147.2c0 0 0.16 0 0.16 0v0c34.24 0 68.96-7.2 102.24-20.64v-126.56zM603.36 369.44c-18.24-18.24-39.84-32.16-64.16-41.6-8.8-3.36-17.76-6.24-27.2-8.32v141.28h141.44c-8.32-35.2-25.12-66.56-50.080-91.36zM512 512v102.4h126.56c10.88-26.72 17.44-54.080 19.84-81.44 0.64-7.040 0.8-14.080 0.8-20.96h-147.2zM256 179.2c0-42.4-34.4-76.8-76.8-76.8s-76.8 34.4-76.8 76.8 34.4 76.8 76.8 76.8 76.8-34.4 76.8-76.8z" />
<glyph unicode="&#xe611;" glyph-name="racing-flag" d="M409.6 716.8h102.4v-102.4h-102.4v102.4zM512 614.4v-102.4c51.2 0 51.2-51.2 102.4-51.2v102.4c-51.2 0-51.2 51.2-102.4 51.2zM614.4 665.6h102.4v-102.4h-102.4v102.4zM614.4 819.2c-25.6 0-38.4 12.8-51.2 25.6s-25.6 25.6-51.2 25.6h-256v-512h256c25.6 0 38.4-12.8 51.2-25.6s25.6-25.6 51.2-25.6h256v512h-256zM819.2 563.2h-102.4v-102.4h102.4v-102.4h-102.4v102.4h-102.4v-102.4c-25.6 0-38.4 12.8-51.2 25.6s-25.6 25.6-51.2 25.6v102.4h-102.4v-102.4h-102.4v102.4h102.4v102.4h-102.4v102.4h102.4v102.4h102.4v-102.4c25.6 0 38.4-12.8 51.2-25.6s25.6-25.6 51.2-25.6v102.4h102.4v-102.4h102.4v-102.4zM102.4 870.4h102.4v-819.2h-102.4v819.2z" />
<glyph unicode="&#xe612;" glyph-name="volleyball" d="M909.6 559.040c7.84-32 11.84-65.12 11.84-98.24 0-20.8-1.6-41.76-4.64-62.24-0.32-1.76-0.64-3.84-0.96-6.080-51.84 40.32-109.12 72.32-170.56 95.52-68.64 25.92-140.64 40.16-214.56 42.24-28.64 52.96-48.8 109.44-60.16 168.16 21.12 2.24 42.56 3.36 63.68 3.36 68.16 0 135.36-11.36 199.84-33.92 61.6-21.44 119.2-52.48 171.040-92.32 1.28-4.16 3.040-10.24 4.48-16.48zM478.56 868.96c11.040 0.96 22.24 1.44 33.44 1.44 71.52 0 141.92-18.72 203.52-54.080 54.72-31.36 101.6-75.2 136.8-127.52-97.92 52.32-206.72 79.68-317.92 79.68-24.16 0-48.48-1.28-72.8-3.84-2.72 34.080-2.4 68.64 0.8 102.72 6.4 0.64 11.84 1.28 16.16 1.6zM145.6 277.6c-28.64 57.12-43.2 118.72-43.2 183.2 0 84.96 25.6 166.080 74.24 235.040 2.24-61.44 12.64-121.92 31.2-180.48 22.080-69.44 55.040-134.4 98.080-193.6-44.48-30.72-92.96-55.2-144.32-72.96-7.040 12-12.32 21.6-16 28.8zM612.48 189.44c65.92 61.92 117.92 135.2 154.56 217.92 47.040-22.4 90.72-50.88 130.56-84.8-0.96-2.56-1.92-5.28-2.88-7.84-14.56-38.080-34.72-73.92-60-106.24-25.12-32-54.56-60-87.84-83.36-69.12-48.32-150.24-73.92-234.88-73.92-31.52 0-62.72 3.52-93.12 10.56 28.96 12.64 57.12 27.36 84.16 43.84 39.2 24.32 76 52.48 109.44 83.84zM307.84 105.76c-40.16 23.2-75.84 52.8-106.24 88 64.8 24.48 124.8 58.56 178.72 101.76 59.2 47.36 109.28 104.16 149.28 169.12 60.16-1.76 119.2-12.48 175.68-31.84-17.12-38.080-38.080-74.56-62.4-108.16-26.56-36.8-57.44-70.56-91.68-100.64-33.6-29.44-70.72-55.36-110.080-76.96-37.6-20.48-77.44-37.12-118.4-49.44-4.16 2.080-9.6 4.96-14.88 8.16zM358.72 362.88c-85.6 118.24-125.76 262.4-113.76 408.32 5.44 4.64 12.96 10.88 19.68 16 39.040 29.6 82.56 51.84 129.28 65.76 0.48 0.16 0.96 0.32 1.44 0.48-8-123.52 18.72-245.76 77.92-355.2-31.36-50.88-69.92-96.32-114.56-135.36z" />
<glyph unicode="&#xe700;" glyph-name="soccerball" d="M671.2 838.080c50.72-21.44 94.24-50.72 130.88-87.2 36.48-36.48 65.6-80.16 87.2-130.88s32.32-103.68 32.32-159.2-10.88-108.48-32.32-159.2c-21.44-50.72-50.72-94.24-87.2-130.88-36.48-36.48-80.16-65.6-130.88-87.2s-103.68-32.32-159.2-32.32-108.48 10.88-159.2 32.32-94.24 50.72-130.88 87.2c-36.64 36.48-65.6 80.16-87.2 130.88s-32.32 103.68-32.32 159.2 10.88 108.48 32.32 159.2 50.72 94.24 87.2 130.88 80.16 65.6 130.88 87.2 103.68 32.32 159.2 32.32 108.48-10.88 159.2-32.32zM228 679.2l28-13.6v-153.6l-100.8-76c4.32-65.6 25.28-125.6 63.2-180h140l51.2-128v-10.4c33.6-10.080 67.68-15.2 102.4-15.2s68.8 5.12 102.4 15.2v10.4l51.2 128h140c37.92 54.4 58.88 114.4 63.2 180l-100.8 76v153.6l27.2 13.6c-36.8 48-83.52 84.48-140 109.6l-143.2-72-143.2 72c-56.48-25.12-103.52-61.6-140.8-109.6zM640 500.8l-48.8-141.6h-158.4l-48.8 141.6 128 88 128-88z" />
<glyph unicode="&#xe701;" glyph-name="baseball" d="M512 51.2c-226.24 0-409.6 183.36-409.6 409.6s183.36 409.6 409.6 409.6 409.6-183.36 409.6-409.6-183.36-409.6-409.6-409.6zM153.6 460.8c0-97.6 39.040-186.080 102.24-250.56 63.36 64.64 102.56 152.96 102.56 250.56s-39.2 186.080-102.56 250.56c-63.2-64.48-102.24-152.96-102.24-250.56zM294.4 745.44c71.36-73.76 115.2-174.080 115.2-284.64s-44-211.040-115.2-284.64c60.32-46.24 135.84-73.76 217.6-73.76s157.28 27.52 217.6 73.76c-71.36 73.76-115.2 174.080-115.2 284.64s44 211.040 115.2 284.64c-60.32 46.24-135.68 73.76-217.6 73.76s-157.28-27.52-217.6-73.76zM768.16 711.36c-63.36-64.48-102.56-152.96-102.56-250.56s39.2-186.080 102.56-250.56c63.2 64.64 102.24 153.12 102.24 250.56s-39.040 186.080-102.24 250.56z" />
<glyph unicode="&#xe800;" glyph-name="shoe" d="M923.040 561.76l-42.4-40c-1.92-1.92-5.12-2.24-7.36-0.48l-54.080 39.68c8.16 8.48 16.8 16.96 26.72 26.4 6.72 6.4 12.8 12.16 19.2 17.76 5.6 5.12 10.72 9.76 15.52 14.56 2.56 2.4 5.12 4.8 7.68 7.2l35.68-57.92c1.44-2.4 0.96-5.44-0.96-7.2zM865.28 636.16c-10.080-9.6-21.92-20-34.72-32.16-9.12-8.48-18.56-17.76-28.32-28-45.6-48.16-379.52-382.72-448-447.2-68.48-64.8-189.28-109.92-240.64-55.36-51.36 54.4 48.16 144.48 79.68 238.88 31.52 94.56 118.72 216.8 118.72 216.8-13.28 27.84 10.4 53.76 19.68 62.56 2.080 2.080 3.52 3.040 3.52 3.040-16.32 32.32 26.88 73.12 26.88 73.12l34.72 189.76c0.64 3.52 2.24 6.56 4.64 8.64 3.52 3.36 8.64 4.96 13.76 4l76.32-13.44c50.24-9.12-19.84-141.12 1.92-141.44 13.92-0.32 40.48 10.56 65.92 34.56 14.24 13.44 28.16 31.2 39.2 53.28 22.88 45.76-25.44 93.92-9.12 109.44 5.44 5.28 18.88 6.72 44.96 3.2 103.2-15.52 185.6-118.080 242.88-180.48 38.88-42.4 24.48-64.8-12-99.2zM330.56 464.32l-32-52c-2.4-3.68 0.32-8.64 4.96-8.64l229.44 3.2c1.28 0.16 2.72 0.48 3.84 1.6l56.64 53.44c3.84 3.68 1.12 10.080-3.84 9.92l-254.4-4.96c-1.76 0.16-3.52-0.96-4.64-2.56zM703.68 580l-312-9.28c-1.92-0.16-3.68-1.12-4.64-2.72l-31.84-51.84c-2.4-4 0.48-8.8 5.12-8.8l283.36 5.28c1.28 0.16 2.72 0.48 3.84 1.6l60.48 55.52c3.52 3.84 0.8 10.24-4.32 10.24zM391.040 52.64c1.44-2.4 0.96-5.44-0.96-7.2l-42.4-40c-1.92-1.92-5.12-2.24-7.36-0.48l-58.56 43.040c-1.12 0.96-1.92 2.24-2.080 4.16 28.64 13.28 56.32 31.040 80 51.36l31.36-50.88zM456 196.48l32.32-52.16c1.44-2.4 0.96-5.44-0.96-7.2l-42.4-40c-1.92-1.92-5.12-2.24-7.36-0.48l-47.52 35.2c16.96 16.32 39.68 38.72 65.92 64.64zM811.36 461.44c1.44-2.4 0.96-5.44-0.96-7.2l-42.4-40.16c-1.92-1.92-5.12-2.24-7.36-0.48l-50.080 37.12c25.12 25.12 47.84 48 66.080 66.56l34.72-55.84z" />
<glyph unicode="&#xe801;" glyph-name="card" d="M307.2 870.4h409.6c28.32 0 51.2-22.88 51.2-51.2v-716.8c0-28.32-22.88-51.2-51.2-51.2h-409.6c-28.32 0-51.2 22.88-51.2 51.2v716.8c0 28.32 22.88 51.2 51.2 51.2z" />
<glyph unicode="&#xe900;" glyph-name="ncr-trophy" d="M469.675-64h85.205v85.333h-85.205v-85.333zM852.907 874.667v85.333h-681.259v-85.333h-171.648l1.365-86.699c1.109-69.76 16.597-297.301 169.643-297.301h9.045c30.976-111.147 146.432-196.608 289.621-210.944v-87.723h-85.12c-94.123 0-170.368-76.416-170.368-170.667v-85.333h85.163v85.333c0 47.104 38.187 85.333 85.205 85.333h255.488c46.933 0 85.12-38.229 85.12-85.333v-85.333h85.163v85.333c0 94.251-76.245 170.667-170.283 170.667h-85.163v87.723c143.189 14.336 258.645 99.797 289.621 210.944h8.448c153.088 0 168.533 227.541 169.685 297.301l1.365 86.699h-171.093zM171.008 576c-81.152 0-84.523 213.333-84.523 213.333h84.523v-213.333zM767.744 550.357c0-101.76-116.992-187.691-255.445-187.691-138.496 0-255.488 85.973-255.488 187.691v324.309h510.933v-324.309zM852.949 576v213.333h84.48c0.043 0-3.328-213.333-84.48-213.333z" />
<glyph unicode="&#xe901;" glyph-name="ncr-chart" d="M426.667 866.091v-503.424h503.424c-39.637-194.517-212.053-341.333-418.091-341.333-235.264 0-426.667 191.403-426.667 426.667 0 206.037 146.816 378.453 341.333 418.091zM512 960c-282.752 0-512-229.248-512-512s229.248-512 512-512c282.752 0 512 229.248 512 512h-512v512zM682.667 846.549c102.187-43.947 183.979-125.739 227.925-227.883h-227.925v227.883zM597.333 960v-426.667h426.667c-36.693 218.069-208.683 389.973-426.667 426.667v0z" />
<glyph unicode="&#xe902;" glyph-name="ncr-close" horiz-adv-x="1317" d="M1170.286 857.673l-409.6-409.673 409.527-409.6-102.327-102.4-409.6 409.673-409.6-409.673-102.327 102.4 409.6 409.6-409.673 409.673 102.327 102.327 409.673-409.673 409.673 409.673 102.327-102.327z" />
<glyph unicode="&#xe903;" glyph-name="ncr-filter" d="M877.714 960v-438.857h146.286v438.857h-146.286zM877.714 228.571h146.286v146.286h-146.286v-146.286zM877.714-64h146.286v146.286h-146.286v-146.286zM438.857-64h146.286v438.857h-146.286v-438.857zM438.857 521.143h146.286v146.286h-146.286v-146.286zM438.857 813.714h146.286v146.286h-146.286v-146.286zM0 521.143h146.286v438.857h-146.286v-438.857zM0 228.571h146.286v146.286h-146.286v-146.286zM0-64h146.286v146.286h-146.286v-146.286z" />
<glyph unicode="&#xe904;" glyph-name="ncr-joystick" d="M942.549 529.451c-34.347 74.88-92.587 174.421-201.771 174.421-44.587 0-82.944-17.109-116.779-32.213l-4.267-1.877c-22.229-9.856-43.563-8.704-60.928-11.648l-51.883 3.2h-2.688c-11.776 0-53.803-4.992-99.371 15.147l-4.267-1.365c-33.835 15.061-72.235 30.464-116.821 30.464-109.355 0-167.68-100.181-202.027-174.891-57.429-124.8-119.552-359.552-55.381-493.867 29.397-61.611 75.861-84.992 109.653-93.525 15.403-3.925 30.592-6.059 45.056-6.059 73.173 0 114.091 48.299 141.184 80.256 31.573 37.291 61.525 78.507 158.635 83.584l24.789 5.589h13.739c116.608 0 148.693-43.904 182.699-84.352 27.051-32 67.925-83.456 141.184-83.456 14.464 0 29.568 0.555 45.013 4.437 33.664 8.576 79.957 31.019 109.355 92.459 64.128 134.315 2.176 368.555-55.125 493.696zM867.2 24.576c-8.789-2.261-16.768 2.603-23.979 2.603-89.643 0-73.984 164.821-323.84 164.821h-7.381v-10.837h-3.157c-250.411 0-236.416-158.677-326.229-158.677-7.253 0-16 1.024-24.875 3.285-118.144 29.952-72.661 306.389 1.877 468.437 44.331 96.256 83.755 124.416 124.373 124.416 27.776 0 55.936-13.184 86.443-26.667 59.392-26.325 113.408-29.056 133.589-29.056 5.333-0.043 7.979 0.128 7.979 0.128v-0.171c0 0 3.328-0.213 8.619-0.213 20.224 0 74.496 2.773 133.675 29.141 30.464 13.568 58.667 26.709 86.357 26.709 40.491 0 80.043-28.16 124.245-124.587 74.368-162.347 120.192-439.296 2.304-469.333zM384 490.667h-85.333v-85.333h-85.333v-85.333h85.333v-85.333h85.333v85.333h85.333v85.333h-85.333zM640 405.333h-85.333v-85.333h85.333v-85.333h85.333v85.333h-85.333zM725.333 405.333h85.333v-85.333h-85.333v85.333zM639.957 490.709h85.333v-85.333h-85.333v85.333zM640 789.333h128c94.123 0 170.667 76.544 170.667 170.667h-85.333c0-47.104-38.229-85.333-85.333-85.333h-128c-94.080 0-170.667-76.544-170.667-170.667h85.333c0 47.104 38.229 85.333 85.333 85.333z" />
<glyph unicode="&#xe905;" glyph-name="ncr-thumb-up" d="M938.667 533.333l0.043-512h-170.667v512h170.624zM938.709 618.667h-170.667c-47.104 0-85.333-38.229-85.333-85.333v-512c0-47.104 38.229-85.333 85.333-85.333h170.667c47.061 0 85.291 38.229 85.291 85.333v512c0 47.104-38.229 85.333-85.291 85.333v0zM358.869 874.496c0.384 0 0.768 0 1.067 0 34.091-0.768 37.717-38.4 43.563-62.848 5.931-24.448 38.187-151.893 93.952-218.453 55.851-66.603 123.904-95.787 185.173-103.253v-398.037c0 0-72.149-2.987-100.736-29.909-28.587-27.008-88.491-40.405-157.909-40.405-69.461 0-143.019 0-143.019 0s-1.835-0.085-4.992-0.085c-22.571 0-114.816 3.413-114.816 59.904 0 0-4.736 41.899 25.856 47.915 0 0-61.269 12.672-61.269 83.755 0 0-3.456 43.435 28.587 56.917 0 0-50.389 5.931-50.389 73.259 0 0 0.683 51.669 29.909 65.877 0 0-48.981 5.973-48.981 73.301s32.725 65.835 54.528 67.328 184.661 29.44 184.661 29.44-18.517 123.179-13.099 192c5.419 68.139 14.848 103.296 47.915 103.296zM358.869 959.829v0c-118.528 0-129.024-132.139-132.949-181.845-2.987-37.845-0.171-86.784 3.755-128.128-47.445-7.851-87.296-14.123-96.725-15.019l-2.005-0.085c-83.499-5.077-131.371-60.587-131.371-152.32 0-38.485 9.984-69.205 25.131-92.928-5.163-20.907-5.931-38.4-6.059-45.184 0-38.571 9.941-69.419 25.088-93.269-2.944-13.824-4.011-27.819-3.285-41.088 0.64-43.264 14.805-78.592 35.883-105.429-1.024-9.429-1.195-18.901-0.427-28.245 2.603-65.835 56.021-140.16 200.064-140.16 2.731 0 4.821 0 6.229 0.085h141.739c66.816 0 157.611 10.667 213.675 61.099 9.259 4.352 33.963 8.661 48.555 9.344l81.835 3.328v555.52l-75.008 9.131c-34.859 4.267-85.717 20.437-130.133 73.387-33.152 39.595-61.867 123.691-76.373 183.68l-1.579 7.040c-21.205 98.261-78.635 120.064-123.093 121.045h-0.939l-2.005 0.043z" />
<glyph unicode="&#xe906;" glyph-name="ncr-search" d="M427.52 789.035c-141.397 0-256-114.645-256-256s114.603-256 256-256c141.355 0 256 114.645 256 256s-114.645 256-256 256zM427.52 362.368c-94.251 0-170.667 76.416-170.667 170.667s76.416 170.667 170.667 170.667 170.667-76.416 170.667-170.667-76.416-170.667-170.667-170.667zM729.6 835.2c-166.784 166.571-437.291 166.4-604.245-0.384-166.955-166.699-167.125-436.907-0.384-603.477s437.291-166.357 604.245 0.384 167.083 436.949 0.384 603.477zM427.52 191.701c-188.501 0-341.333 152.832-341.333 341.333s152.832 341.333 341.333 341.333 341.333-152.832 341.333-341.333-152.832-341.333-341.333-341.333zM986.496 154.496l-213.931 213.931c-12.715-26.581-28.16-51.499-46.421-74.24l200.021-200.021c10.88-10.88 12.501-23.595 12.501-30.165 0-6.613-1.621-19.285-12.501-30.165s-23.595-12.501-30.165-12.501c-6.613 0-19.285 1.621-30.165 12.501l-200.107 200.064c-22.784-18.176-47.787-33.579-74.411-46.251l214.229-214.187c24.96-24.96 57.685-37.461 90.453-37.461s65.493 12.501 90.496 37.504c50.005 49.963 50.005 130.987 0 180.992z" />
<glyph unicode="&#xe907;" glyph-name="ncr-bag" d="M810.667 704v-2.688l0.171-2.688 42.325-677.291h-682.325l42.325 677.333 0.171 2.645v2.688h597.333zM810.667 789.333h-597.333c-47.104 0-85.333-38.229-85.333-85.333l-42.667-682.667c0-47.104 38.229-85.333 85.333-85.333h682.667c47.104 0 85.333 38.229 85.333 85.333l-42.667 682.667c0 47.104-38.229 85.333-85.333 85.333v0zM384 618.667v135.509c0 66.432 54.059 120.491 120.491 120.491h11.264c66.475 0 124.245-54.059 124.245-120.491v-135.509h85.333v135.509c0 113.664-92.16 205.824-205.824 205.824h-15.019c-113.664 0-205.824-92.16-205.824-205.824v-135.509h85.333z" />
<glyph unicode="&#xe908;" glyph-name="ncr-account" d="M511.317 235.307c94.123 0 170.325 37.76 170.325 84.352h-340.693c0-46.635 76.245-84.352 170.368-84.352zM383.531 575.872h-85.376v-85.291h85.376v85.291zM511.957 960c-282.752 0-511.957-229.205-511.957-512 0-282.752 229.205-512 511.957-512 282.795 0 512.043 229.248 512.043 512 0 282.795-229.248 512-512.043 512zM511.573 21.675c-235.691 0-426.837 190.891-426.837 426.283s191.147 426.283 426.837 426.283 426.837-190.891 426.837-426.283-191.104-426.283-426.837-426.283zM639.616 490.581h85.376v85.291h-85.376v-85.291z" />
<glyph unicode="&#xe909;" glyph-name="ncr-achievements" d="M682.667 789.333v-170.667c0-94.123-76.544-170.667-170.667-170.667s-170.667 76.544-170.667 170.667v170.667h341.333zM853.333 960h-682.667v-341.333c0-188.501 152.832-341.333 341.333-341.333s341.333 152.832 341.333 341.333v341.333zM597.333 362.667h-170.667v-256h-170.667v-170.667h512v170.667h-170.667v256zM853.333 789.333v-170.667h170.667v170.667h-170.667zM0 618.667h170.667v170.667h-170.667v-170.667z" />
<glyph unicode="&#xe90a;" glyph-name="ncr-assists" d="M896 789.333c-16.853 0-32.896-3.456-47.573-9.387-14.763 54.443-64 94.72-123.093 94.72-18.773 0-36.523-4.309-52.608-11.563-21.291 56.491-75.392 96.896-139.392 96.896-41.856 0-79.573-17.323-106.667-45.013-27.093 27.691-64.811 45.013-106.667 45.013-82.517 0-149.333-66.859-149.333-149.333v-106.667c-94.251 0-170.667-76.416-170.667-170.667v-85.333c0-282.752 229.248-512 512-512s512 229.248 512 512v213.333c0 70.699-57.344 128-128 128zM938.667 533.333v-85.333c0-235.264-191.403-426.667-426.667-426.667s-426.667 191.403-426.667 426.667v85.333c0 47.061 38.272 85.333 85.333 85.333v-170.667h85.333v362.667c0 35.285 28.715 64 64 64s64-28.715 64-64v-192h85.333v192c0 35.285 28.715 64 64 64s64-28.715 64-64v-192h85.333v128c0 23.509 19.115 42.667 42.667 42.667s42.667-19.157 42.667-42.667v-213.333h85.333v128c0 23.509 19.115 42.667 42.667 42.667s42.667-19.157 42.667-42.667v-128z" />
<glyph unicode="&#xe90b;" glyph-name="ncr-baron-kills" d="M460.8 345.6v-102.4h102.4v102.4h-102.4zM563.2 908.8l153.6-256v-153.6h-102.4l-102.4 153.6-102.4-153.6h-102.4v153.6l153.6 256-358.4-256 256-665.6h102.4v102.4h102.4v-102.4h102.4l256 665.6-358.4 256zM665.6 243.2h-102.4v-102.4h-102.4v102.4h-102.4v102.4h102.4v102.4h102.4v-102.4h102.4v-102.4z" />
<glyph unicode="&#xe90c;" glyph-name="ncr-comments-small" d="M819.2 755.2v-407.962h-571.699l-42.701-28.57v436.531h614.4zM877.67 960h-731.341c-80.794 0-146.33-73.216-146.33-163.533v-860.467l309.453 206.438h568.218c80.794 0 146.33 73.114 146.33 163.328v490.701c0 90.317-65.536 163.533-146.33 163.533v0z" />
<glyph unicode="&#xe90d;" glyph-name="ncr-damage" d="M875.861 540.032c-16.384 25.216-27.307 50.261-32.469 74.539l-42.069 197.163-111.659-166.4c-11.563-17.195-20.608-36.352-27.008-56.96-0.256-0.64-0.427-1.28-0.64-1.963-15.445 38.016-33.792 115.157-22.187 257.109l0.171 116.48-128-42.667c-78.464-42.325-174.080-162.091-203.179-306.816-10.496-51.797-10.325-103.083-5.675-147.968-0.384 0.555-0.768 1.067-1.152 1.621-4.011 5.931-10.581 16.896-18.859 35.755l-78.933 179.115-77.141-179.968c-27.691-64.597-41.728-123.989-41.728-176.427 0-152.747 82.859-276.907 213.333-340.437v100.309c-79.659 53.205-128 138.325-128 240.128 0 48.896 17.536 101.803 34.603 141.525 7.637-17.365 16.725-35.2 26.837-49.963 56.533-82.432 143.915-103.467 147.755-104.32 2.389-0.597 4.821-0.853 7.211-0.853 8.875 0 17.365 3.541 23.339 9.771 7.595 8.064 9.728 19.285 5.632 29.269-0.512 1.195-48.213 123.008-23.68 244.864 25.216 125.227 111.317 230.229 162.475 257.792-5.163-62.891-13.611-215.595 36.907-316.587 24.32-48.683 79.531-120.96 81.877-124.075 5.931-7.765 15.445-12.117 25.301-12.117 3.456 0 6.912 0.555 10.325 1.664 13.141 4.309 21.589 16.085 20.651 28.971-0.043 0.768-4.779 72.277 14.080 133.419 4.224 13.525 9.856 24.789 16.043 33.963 6.101-28.459 18.816-64.213 44.672-104.021 38.613-59.648 48.64-94.379 48.64-169.301 0-100.309-48.597-184.491-128-237.781v-99.072c129.408 65.067 213.333 188.629 213.333 336.896 0 92.245-14.677 143.061-62.805 217.344zM512 197.376c-70.699 0-128-58.539-128-130.688 0-72.192 57.259-130.688 128-130.688s128 58.496 128 130.688c0 72.149-57.301 130.688-128 130.688zM554.667 23.125h-85.333v87.125h85.333v-87.125z" />
<glyph unicode="&#xe90e;" glyph-name="ncr-deaths" d="M496.427 874.667c6.229 0 9.728-0.213 9.728-0.213h7.595c0 0 0.128 0 0.469 0 14.165 0 357.333-3.84 357.333-379.136 0 0 54.997-55.253 0-94.848v-47.317c0 0 54.997-47.403-27.563-94.848-82.56-47.36-165.12-61.227-165.12-142.165 0 0-43.605-94.805-165.163-94.805-122.667 0-166.656 94.72-166.656 94.72 0 80.896-83.328 94.763-166.613 142.037-83.328 47.36-27.776 94.763-27.776 94.763v47.317c-55.552 39.467 0 94.72 0 94.72 0.043 361.856 286.933 379.776 343.765 379.776zM496.427 960c-192.213 0-415.701-114.859-428.501-435.84-14.080-22.357-27.947-54.741-24.832-92.757 1.749-20.949 8.491-40.832 19.669-58.581-9.728-19.883-15.488-43.563-13.013-69.419 3.157-33.365 21.12-81.152 88.491-119.509 22.784-12.971 44.928-23.381 64.427-32.597 20.821-9.813 52.096-24.576 59.051-32.981-0.043-0.256 0-1.067 0-2.304v-18.816l7.936-17.109c24.875-53.504 104.277-144.085 244.096-144.085 139.051 0 217.984 90.795 242.645 144.469l7.851 16.939v18.688c0 2.347 0.256 3.328 0.256 3.328 5.205 6.955 36.992 22.144 58.027 32.128 19.371 9.259 41.387 19.712 63.957 32.725 66.816 38.357 84.608 86.059 87.808 119.296 2.517 25.941-3.243 49.664-12.971 69.589 11.136 17.792 17.877 37.632 19.584 58.581 3.115 37.973-10.667 70.357-24.619 92.715-14.933 343.424-293.077 435.328-442.069 435.328h-6.016c-2.56 0.085-6.528 0.213-11.776 0.213v0zM597.333 448l85.333-42.667h85.333v170.667l-170.667-128zM256 405.333h85.333l85.333 42.667-170.667 128v-170.667zM469.333 192h85.333v128h-85.333v-128z" />
<glyph unicode="&#xe90f;" glyph-name="ncr-dragon-kills" d="M819.2 652.8v102.4l-204.8-102.4-102.4 307.2-102.4-307.2-204.8 102.4v-102.4h-204.8c0 0 204.8-181.965 204.8-358.4v-102.4c0 0 204.8-45.056 204.8-204.8 0 0 25.446-51.2 102.4-51.2 76.902 0 102.4 51.2 102.4 51.2 0 159.744 204.8 204.8 204.8 204.8v102.4c0 176.435 204.8 358.4 204.8 358.4h-204.8zM409.6 243.2l-102.4 51.2-51.2 153.6 153.6-51.2v-153.6zM716.8 294.4l-102.4-51.2v153.6l153.6 51.2-51.2-153.6z" />
<glyph unicode="&#xe910;" glyph-name="ncr-explosion" d="M534.835 702.942l32.29-143.394 133.939 60.109-32.29-115.644 83.115-18.5-78.507-97.109 124.723-41.677-170.94-55.535 36.966-115.678-101.615 69.393-69.291-74.001-73.899 83.251-133.939-32.393 41.574 138.786-133.939 46.251 133.939 83.251-106.223 97.143 143.155-23.142 9.25 134.178 73.899-101.786 87.791 106.496zM318.191 891.733l-12.971-188.314-3.959-57.344-301.261 48.674 211.729-193.604-181.385-112.811 211.661-73.148-21.675-72.26-35.43-118.272 211.251 51.132 95.71-107.93 80.247 85.641 218.556-149.231-61.884 193.673-15.019 47.138 310.238 100.796-233.097 77.756 13.107 16.179 73.045 90.317-122.402 27.273 11.913 42.462 40.346 144.555-192-86.221-13.687 60.928-30.618 135.987-120.081-145.579-22.903 31.607-109.431 150.596zM409.6 448l34.133 102.4 68.267-68.267 136.533 34.167-34.099-102.434v-136.533l-102.434 68.267-102.4-68.267 34.133 102.4-136.533 34.133 102.4 34.133z" />
<glyph unicode="&#xe911;" glyph-name="ncr-hardware" d="M853.333 277.333h-256v-170.667h170.667v-170.667h-512v170.667h170.667v170.667h-256c-94.208 0-170.667 76.459-170.667 170.667v341.333c0 94.208 76.459 170.667 170.667 170.667h682.667c94.208 0 170.667-76.459 170.667-170.667v-341.333c0-94.208-76.459-170.667-170.667-170.667zM853.333 789.333h-682.667v-341.333h682.667v341.333z" />
<glyph unicode="&#xe912;" glyph-name="ncr-healing" d="M512-64c-282.752 0-512 229.205-512 512s229.248 512 512 512c282.752 0 512-229.205 512-512s-229.248-512-512-512zM512 874.667c-235.605 0-426.667-191.061-426.667-426.709 0-235.605 191.061-426.624 426.667-426.624s426.667 191.019 426.667 426.624c0 235.648-191.019 426.709-426.667 426.709zM763.648 490.667c-17.963 107.051-102.059 191.36-208.981 209.451v85.205c154.155-19.413 276.437-140.459 295.765-294.656h-86.784zM554.667 490.667h128v-85.333h-128v-128h-85.333v128h-128v85.333h128v128h85.333v-128zM260.309 490.667h-86.699c19.285 154.197 141.568 275.285 295.723 294.656v-85.205c-106.923-18.091-190.976-102.4-209.024-209.451zM469.333 195.84v-85.163c-154.155 19.371-276.437 140.416-295.723 294.613h86.699c18.048-107.008 102.101-191.36 209.024-209.451zM763.648 405.291h86.741c-19.328-154.197-141.568-275.243-295.765-294.613v85.163c106.965 18.091 191.061 102.443 209.024 209.451z" />
<glyph unicode="&#xe913;" glyph-name="ncr-inhibitors-destroyed" d="M512 857.6c-226.202 0-409.6-183.398-409.6-409.6s183.398-409.6 409.6-409.6c226.202 0 409.6 183.398 409.6 409.6s-183.398 409.6-409.6 409.6zM512 192c-141.363 0-256 114.586-256 256s114.637 256 256 256c141.414 0 256-114.586 256-256s-114.586-256-256-256zM359.219 448l152.781-152.73 152.781 152.73-152.781 152.73-152.781-152.73z" />
<glyph unicode="&#xe914;" glyph-name="ncr-kills" d="M195.712 319.957h-90.795c41.685-132.523 146.517-236.757 279.083-278.443v91.051c-85.291 34.688-153.728 102.059-188.288 187.392zM104.917 576h90.795c34.56 85.333 102.997 152.747 188.288 187.477v90.965c-132.565-41.728-237.44-145.835-279.083-278.443zM828.288 576h90.795c-41.685 132.565-146.517 236.715-279.083 278.443v-91.008c85.248-34.688 153.728-102.101 188.288-187.435zM640 132.523v-91.051c132.523 41.728 237.397 145.92 279.083 278.443h-90.795c-34.56-85.291-103.040-152.661-188.288-187.392zM469.333 618.667h85.333v341.333h-85.333v-341.333zM469.333-64h85.333v341.291h-85.333v-341.291zM682.667 490.624v-85.333h341.333v85.333h-341.333zM341.333 490.624h-341.333v-85.333h341.333v85.333zM469.333 405.291h85.333v85.333h-85.333v-85.333z" />
<glyph unicode="&#xe915;" glyph-name="ncr-lineups" d="M512 789.333c47.019 0 85.333-38.315 85.333-85.333s-38.315-85.333-85.333-85.333-85.333 38.315-85.333 85.333 38.315 85.333 85.333 85.333zM512 960c-141.397 0-256-114.603-256-256s114.603-256 256-256c141.312 0 256 114.603 256 256s-114.688 256-256 256v0zM341.333 106.667h341.333c94.123 0 170.667-76.459 170.667-170.667h170.667c0 188.501-152.832 341.333-341.333 341.333h-341.333c-188.501 0-341.333-152.832-341.333-341.333h170.667c0 94.208 76.544 170.667 170.667 170.667z" />
<glyph unicode="&#xe916;" glyph-name="ncr-login-register" d="M639.616 943.787v-88.661c173.184-54.357 298.795-215.979 298.795-406.912 0-235.563-191.104-426.496-426.837-426.496s-426.837 190.933-426.837 426.496c0 190.976 125.653 352.555 298.795 406.912v88.448c-220.501-57.088-383.531-256.896-383.531-495.317 0-282.88 229.205-512.256 511.957-512.256 282.795 0 512.043 229.376 512.043 512.256 0 238.72-163.499 438.741-384.384 495.531zM554.283 960h-85.376v-426.496h85.376v426.496z" />
<glyph unicode="&#xe917;" glyph-name="ncr-medal" d="M512 704c-212.096 0-384-171.904-384-384s171.904-384 384-384 384 171.904 384 384-171.904 384-384 384zM512 21.333c-164.949 0-298.667 133.717-298.667 298.667s133.717 298.667 298.667 298.667 298.667-133.717 298.667-298.667-133.717-298.667-298.667-298.667zM512 533.333c-117.803 0-213.333-95.488-213.333-213.333s95.531-213.333 213.333-213.333c117.845 0 213.333 95.488 213.333 213.333s-95.488 213.333-213.333 213.333zM512 192c-70.699 0-128 57.301-128 128 0 70.656 57.301 128 128 128 70.656 0 128-57.344 128-128 0-70.699-57.344-128-128-128zM205.824 675.243l-79.787 199.424h242.816l38.955-97.323c28.288 6.4 57.515 10.112 87.467 11.179l-68.608 171.477h-426.667l141.227-352.981c19.243 24.832 40.832 47.701 64.597 68.224zM616.149 777.344l38.955 97.323h242.859l-79.787-199.424c23.808-20.523 45.355-43.392 64.64-68.224l141.184 352.981h-426.667l-68.608-171.52c29.952-1.024 59.179-4.736 87.424-11.136z" />
<glyph unicode="&#xe918;" glyph-name="ncr-offense" d="M0-64h292.571v146.286h-292.571v-146.286zM365.714-64h292.571v146.286h-292.571v-146.286zM731.429-64h292.571v146.286h-292.571v-146.286zM146.286 960c-107.666 0-146.286-292.571-146.286-292.571v-512h292.571v512c0 0-34.597 292.571-146.286 292.571zM512 960c-107.666 0-146.286-292.571-146.286-292.571v-512h292.571v512c0 0-34.597 292.571-146.286 292.571zM877.714 960c-107.666 0-146.286-292.571-146.286-292.571v-512h292.571v512c0 0-34.597 292.571-146.286 292.571z" />
<glyph unicode="&#xe919;" glyph-name="ncr-overview" d="M341.675 106.667h-143.275c-15.275 0-24.405 7.424-27.307 22.357l-169.557 635.904c-5.035 16.213 2.219 24.405 21.931 24.405h102.827c14.507 0 23.296-7.424 26.197-22.272l114.859-522.411h4.352l114.859 522.411c2.901 14.848 11.605 22.272 26.197 22.272h102.827c18.261 0 25.515-8.192 21.845-24.405l-169.472-635.904c-3.669-14.933-12.459-22.357-26.283-22.357zM541.781 280.747v21.333c0 14.848 7.68 22.272 22.955 22.272h92.928c15.445 0 23.040-7.424 23.040-22.272v-8.533c0-26.965 5.376-45.312 16.384-55.125 10.837-9.984 30.976-14.848 60.075-14.848h51.541c28.416 0 48.213 5.205 59.563 15.957 11.349 10.496 16.896 30.379 16.896 59.221v12.8c0 20.565-8.704 36.352-25.771 47.275s-38.4 17.579-64 19.627c-25.515 2.133-52.907 6.229-82.517 12.203-29.44 6.059-57.003 13.824-82.517 23.467-25.515 9.472-46.848 28.245-63.915 56.149-17.152 27.989-25.771 63.915-25.771 107.776v37.12c0 55.211 16.043 98.048 48.043 128.427 32.085 30.549 76.544 45.739 133.461 45.739h109.312c57.771 0 102.4-15.189 134.571-45.653 32-30.379 48.043-73.216 48.043-128.427v-20.139c0-14.848-7.68-22.357-22.869-22.357h-93.184c-15.189 0-22.869 7.424-22.869 22.357v6.315c0 27.648-5.547 46.336-16.384 56.32-10.837 9.813-30.891 14.763-59.989 14.763h-42.667c-29.952 0-50.261-5.461-60.757-16.469s-15.872-32.341-15.872-64.171v-20.224c0-33.28 29.952-52.309 89.771-57.259 61.952-4.949 116.907-16.981 165.205-36.096 25.429-10.581 46.763-29.525 64-56.832 16.981-27.221 25.515-62.037 25.515-104.533v-36.181c0-55.125-15.957-97.963-48.043-128.427-32-30.379-76.544-45.653-133.461-45.653h-119.125c-56.832 0-101.376 15.275-133.461 45.653s-48.128 73.387-48.128 128.427z" />
<glyph unicode="&#xe91a;" glyph-name="ncr-pliers" d="M649.263 305.943c-14.336-64.047-89.74-179.107-181.388-236.777s-149.271-97.28-177.617-113.664c-28.439-16.431-73.775-45.754-112.873 30.58 0 0-12.66 3.258 29.882 29.882 42.543 26.531 191.162 143.034 233.239 185.065 42.031 41.984 88.39 129.955 124.369 211.596 35.887 81.594 24.902 94.487 117.574 181.062 0 0 2.374-1.583 6.284-4.282 7.168 0.047 16.617 11.264 16.617 11.264l-15.965 15.872-19.921 19.921-3.724-3.724c-10.659-10.659-3.212-19.13-3.212-19.13l-3.77 2.327c1.443-2.095 2.188-3.165 2.188-3.165-86.9-92.812-99.887-81.641-181.993-117.527-82.153-35.84-170.636-82.060-212.759-124.090-42.124-42.124-159.046-190.929-185.716-233.519-26.624-42.543-29.975-29.929-29.975-29.929-76.94 39.424-47.523 84.899-31.046 113.338s56.134 86.063 113.943 177.85c57.856 91.788 173.475 167.145 237.894 181.341 64.465 14.196 91.834 63.581 101.143 100.957 9.402 37.423 23.831 39.75 41.751 25.647 17.967-14.15 39.005-7.121 58.368-5.911 19.316 1.257 27.695 11.636 35.049-5.073 0.977-2.188 2.607-5.213 4.794-8.89 11.776-5.167 27.974 15.919 27.974 15.919l63.535 63.395c0.372 6.097 3.212 19.177 3.212 19.177l63.535 63.441c35.933 30.161 186.275 102.912 197.073 109.196s19.456-4.468 19.456-4.468l3.956-4.003-56.041-55.994c-8.937 8.937-19.223-3.212-19.223-3.212s-30.394-30.348-41.053-41.007c-10.705-10.705 0.745-23.18 0.745-23.18l-55.575-71.401 71.494 55.482c10.845-10.799 27.183-4.748 27.183-4.748s27.229 27.183 41.1 41.053c13.917 13.871-0.745 23.087-0.745 23.087l56.087 55.948 3.956-3.956c6.796-6.842 4.515-19.409 4.515-19.409s-24.623-56.413-54.319-109.94-51.107-90.81-51.107-90.81-60.369-60.183-63.535-63.395c-3.212-3.212-23.18 0.745-23.18 0.745s-72.099-71.913-78.522-78.336c-3.537-3.537-1.815-9.030 0.465-13.312 4.887-2.886 8.983-5.12 11.776-6.377 16.57-7.215 6.284-15.546 4.934-34.769-1.257-19.223-8.378-40.169 5.725-57.996 14.103-17.734 11.683-32.070-25.693-41.472-37.283-9.356-86.528-36.631-100.864-100.678z" />
<glyph unicode="&#xe91b;" glyph-name="ncr-replay" d="M225.877 789.333c13.909 0 29.952-4.181 47.36-13.056l533.419-273.067c59.989-30.379 63.061-80.043 2.987-110.507l-536.32-272.981c-17.493-8.875-33.536-13.056-47.445-13.056-33.792 0-55.211 24.747-55.211 67.328v547.925c0 42.667 21.419 67.413 55.211 67.413zM225.877 960c-128.768 0-225.877-102.315-225.877-238.080v-547.925c0-135.68 97.109-237.995 225.877-237.995 41.472 0 83.456 10.667 124.672 31.573l536.576 273.067c85.504 43.264 136.875 120.32 136.875 205.824 0 86.443-52.395 164.608-140.203 208.981l-532.736 272.725c-41.728 21.248-83.712 31.829-125.184 31.829v0z" />
<glyph unicode="&#xe91c;" glyph-name="ncr-rift-heralds-killed" d="M801.485 297.165c-41.574-120.627-154.726-207.923-289.331-207.923-134.656 0-247.808 87.194-289.382 207.872-96.102 14.643-171.571 99.686-171.571 99.686 0 355.994 256 512 256 512v-284.058c54.426 49.152 125.85 79.923 204.954 79.923 78.95 0 150.221-30.669 204.646-79.667v283.802c0 0 256-156.006 256-512 0 0-75.315-84.89-171.315-99.635zM512.154 564.787c-77.158 0-139.725-62.618-139.725-139.827s62.566-195.84 139.725-195.84 139.674 118.579 139.674 195.84-62.515 139.827-139.674 139.827zM460.8 448h102.4v-102.4h-102.4v102.4zM306.79-12.8c-180.019 21.299-255.59 153.6-255.59 153.6 41.37 71.066 51.2 153.6 51.2 153.6 17.050-146.79 204.39-307.2 204.39-307.2zM921.6 294.4c0 0 9.83-82.534 51.2-153.6 0 0-75.571-132.301-255.59-153.6 0 0 187.341 160.41 204.39 307.2z" />
<glyph unicode="&#xe91d;" glyph-name="ncr-skull" d="M904.192 333.824v56.832c60.090 47.383 0 113.711 0 113.711 0 499.293-390.284 454.609-390.284 454.609v-0.838c0 0-393.821 44.591-393.821-454.284 0 0-60.602-66.234 0-113.571v-56.785c0 0-60.602-56.785 30.301-113.524 90.857-56.785 181.76-73.356 181.76-170.356 0 0 47.942-113.571 181.76-113.571 132.608 0 180.177 113.664 180.177 113.664 0 97.094 90.065 113.664 180.131 170.496s29.975 113.617 29.975 113.617zM304.733 333.824c-145.361 0-119.296 87.040-119.296 142.103s52.224 113.617 149.132 113.617 119.296-56.785 119.296-56.785-3.77-198.935-149.132-198.935zM513.908 163.375c-127.628 3.584-90.112 85.225-60.044 113.617 30.022 28.439 60.044 85.271 60.044 85.271s30.022-56.832 60.090-85.271c30.022-28.393 67.444-110.033-60.090-113.617zM722.991 333.824c-145.315 0-149.039 198.935-149.039 198.935s22.295 56.785 119.249 56.785 149.132-58.554 149.132-113.617 26.019-142.103-119.343-142.103z" />
<glyph unicode="&#xe91e;" glyph-name="ncr-stats" d="M426.667-64h170.667v1024h-170.667v-1024zM85.333-64h170.667v682.667h-170.667v-682.667zM768 448v-512h170.667v512h-170.667z" />
<glyph unicode="&#xe91f;" glyph-name="ncr-stopwatch" d="M372.364 866.909h46.545v-92.998h186.182v92.998h46.545c25.693 0 46.545 20.852 46.545 46.545 0 25.74-20.852 46.545-46.545 46.545h-279.273c-25.74 0-46.545-20.806-46.545-46.545 0-25.693 20.806-46.545 46.545-46.545zM512 587.636c-25.74 0-46.545-20.806-46.545-46.545v-186.182c0-25.693 20.806-46.545 46.545-46.545 25.693 0 46.545 20.852 46.545 46.545v186.182c0 25.74-20.852 46.545-46.545 46.545zM842.38 611.887c18.292-14.336 44.404-13.824 61.254 3.025 18.199 18.199 18.199 47.616 0 65.862l-65.815 65.815c-18.199 18.153-47.663 18.153-65.815 0-16.849-16.849-17.361-43.101-2.979-61.347-71.028 55.343-160.023 88.623-257.024 88.623-231.377 0-418.909-187.578-418.909-418.956s187.532-418.909 418.909-418.909 418.909 187.532 418.909 418.909c0 96.954-33.28 185.996-88.529 256.977zM512 29.091c-179.945 0-325.818 145.92-325.818 325.818 0 179.945 145.873 325.865 325.818 325.865s325.818-145.92 325.818-325.865c0-179.898-145.873-325.818-325.818-325.818z" />
<glyph unicode="&#xe920;" glyph-name="ncr-tank" d="M950.857 416.183v-11.63h-0.658c-0.951-10.679-3.145-24.064-8.338-34.743-10.094-20.553-113.079-162.67-170.13-225.646-57.051-62.83-211.602-208.165-259.73-208.165s-202.679 145.335-259.803 208.238c-57.051 62.976-160.037 205.019-170.13 225.646-5.193 10.679-7.387 24.137-8.265 34.743h-0.658v11.557c-0.073 3.511 0 5.778 0 5.778v381.806c0 52.882 12.8 141.166 438.857 156.233 425.984-15.067 438.857-103.351 438.857-156.16v-381.879c0 0 0.073-2.267 0-5.778z" />
<glyph unicode="&#xe921;" glyph-name="ncr-team-overview" d="M658.261 788.565c37.461-81.152 100.011-146.773 172.373-191.403-43.776-182.613-134.059-375.808-318.037-474.112-184.747 98.389-275.285 291.584-319.147 474.197 72.363 44.629 134.827 110.251 172.373 191.317h292.437zM793.429 960c-1.365 0-2.133-0.085-2.133-0.171 0-0.171 0-0.341 0-0.597h20.736c-6.485 0.256-14.677 0.768-18.603 0.768v0zM230.656 960c-3.669 0-11.691-0.512-17.92-0.768h19.968c0 0.171 0 0.341 0 0.597 0 0.085-0.768 0.171-2.048 0.171v0zM820.907 959.232h-8.789c2.645-0.085 5.12-0.171 6.741-0.171 1.28-0.085 2.048 0 2.048 0.171v0zM791.296 959.232h-558.592c-0.341-134.485-118.187-239.787-232.704-255.317 35.499-254.976 151.040-630.784 512.512-767.829v-0.085c0 0 0 0 0.085 0s0 0 0.085 0v0.085c361.387 137.045 475.904 512.853 511.317 767.829-114.432 15.531-232.363 120.832-232.704 255.317v0zM212.736 959.232h-8.533c0-0.085 0.768-0.171 2.048-0.171 1.536-0.085 3.84 0 6.485 0.171v0z" />
<glyph unicode="&#xe922;" glyph-name="ncr-team-shield1" d="M693.845 873.856c28.203-106.069 106.112-188.203 192.512-228.864-39.381-230.869-137.301-498.432-373.803-615.339-237.355 117.163-335.488 384.64-374.869 615.381 86.357 40.661 164.267 122.752 192.469 228.864h363.691zM769.963 960c-1.195 0-1.963-0.043-1.963-0.213s0-0.384 0-0.597h19.072c-5.931 0.299-13.568 0.811-17.109 0.811v0zM254.123 960c-3.413 0-10.752-0.512-16.469-0.811h18.347c0 0.171 0 0.384 0 0.597 0 0.171-0.725 0.213-1.877 0.213v0zM795.221 959.189h-8.107c2.475-0.128 4.651-0.213 6.187-0.213 1.152 0.043 1.92 0.085 1.92 0.213v0zM768 959.189h-512c-0.299-134.443-108.373-239.787-213.333-255.275 32.512-254.976 138.411-630.741 469.803-767.829v-0.085c0.043 0 0.043 0.043 0.085 0.043s0.043-0.043 0.085-0.043v0.085c331.264 137.088 436.181 512.853 468.693 767.829-104.917 15.531-212.992 120.875-213.333 255.275v0zM237.653 959.189h-7.808c0-0.128 0.725-0.213 1.877-0.213 1.408 0.043 3.541 0.128 5.931 0.213v0zM640 704l-256-213.291 85.12-56.491-85.12-199.552 256 213.376-85.12 56.491z" />
<glyph unicode="&#xe923;" glyph-name="ncr-towers-destroyed" d="M745.472 448h-80.947v-102.4h102.349v-102.4h-73.83l-28.518-256h-306.995l-28.416 256h-73.933v102.4h102.298v102.4h-78.899l-176.179 154.214h203.93v101.786l204.698 204.8 204.646-204.8v-101.786h205.978l-176.179-154.214zM562.176 704h-102.349v-102.4h102.349v102.4z" />
<glyph unicode="&#xe924;" glyph-name="ncr-logout" d="M898.688 146.517c-166.912-166.741-437.461-166.912-604.203-0.427-14.421 14.421-27.136 29.824-39.040 45.653h116.309c60.117-52.907 138.837-85.333 225.28-85.333 188.501 0 341.291 152.832 341.291 341.333 0 188.459-152.789 341.291-341.291 341.291-86.443 0-165.163-32.341-225.28-85.333h-116.096c11.947 15.872 24.747 31.317 39.211 45.781 166.955 166.699 437.504 166.912 604.203 0.384s166.613-436.608-0.384-603.349zM597.035 490.411v-85.333h-450.304l66.603-70.912-53.333-56.747-160 170.325 160 170.368 53.333-56.789-66.603-70.912h450.304z" />
<glyph unicode="&#xe925;" glyph-name="ncr-achievements-trophy" horiz-adv-x="901" d="M593.92 181.76v-204.8h-286.72v204.8h286.72zM634.88 222.72h-368.64v-286.72h368.64v286.72zM512 304.64v-40.899h40.817l-0.143-41.021h-204.452l-0.041 41.021h40.94v40.899h122.88zM552.96 345.6h-204.8v-40.899h-40.96l0.082-95.58v-27.361h286.31v27.361l0.328 95.58h-40.96v40.899zM430.080 448h40.96v-123.556h-40.96v123.556zM655.36 919.040v-240.067c0-116.060-91.873-210.493-204.8-210.493s-204.8 94.433-204.8 210.493v240.067h409.6zM696.32 960h-491.52v-281.027c0-138.895 110.039-251.453 245.76-251.453 135.741 0 245.76 112.558 245.76 251.453v281.027zM900.588 917.934l-245.228 1.106v-368.312c268.698 30.577 245.228 367.206 245.228 367.206zM782.787 654.397c-32.645-35.103-74.301-54.866-126.648-61.706l0.246 285.389h203.776c-2.273-54.497-15.749-157.43-77.373-223.683zM245.76 550.728v368.312h-42.045l-203.182-1.106c0 0-21.012-336.63 245.228-367.206zM40.94 878.080h203.796l0.246-285.389c-52.347 6.82-94.003 26.604-126.648 61.706-61.645 66.253-75.121 169.185-77.394 223.683z" />
<glyph unicode="&#xe926;" glyph-name="ncr-award-medal" horiz-adv-x="901" d="M594.964 470.139l306.156 489.861h-286.72l-163.84-262.144-163.84 262.144h-286.72l306.156-489.861c-85.033-49.746-142.316-141.783-142.316-247.419 0-158.351 128.369-286.72 286.72-286.72s286.72 128.369 286.72 286.72c0 105.636-57.283 197.673-142.316 247.419zM827.228 919.040l-256-409.6h-74.588l256 409.6h74.588zM636.006 919.040h75.674l-256-409.6h-74.588l254.915 409.6zM265.134 919.040l161.485-259.502-37.499-59.986-199.68 319.488h75.694zM148.48 919.040l220.16-352.256-35.84-57.344h-2.908l-256 409.6h74.588zM450.56-23.040c-135.516 0-245.76 110.244-245.76 245.76s110.244 245.76 245.76 245.76c135.516 0 245.76-110.244 245.76-245.76s-110.244-245.76-245.76-245.76zM450.58 407.040c-101.827 0-184.34-82.514-184.34-184.32s82.514-184.32 184.34-184.32c101.786 0 184.32 82.514 184.32 184.32s-82.534 184.32-184.32 184.32zM450.58 79.36c-79.053 0-143.38 64.328-143.38 143.36s64.328 143.36 143.38 143.36c79.032 0 143.36-64.328 143.36-143.36s-64.328-143.36-143.36-143.36z" />
<glyph unicode="&#xe927;" glyph-name="ncr-defense" d="M950.857-64h-877.714c-40.448 0-73.143 32.768-73.143 73.143v73.143c0 40.448 32.695 73.143 73.143 73.143h877.714c40.375 0 73.143-32.695 73.143-73.143v-73.143c0-40.375-32.768-73.143-73.143-73.143zM221.55 447.488h583.461c0 0-28.379-291.767 130.341-291.767-104.667 0-741.815 0-846.409 0 158.72 0 132.608 291.767 132.608 291.767zM804.571 594.286h-585.143c-40.448 0-73.143 32.768-73.143 73.143v219.429c0 40.448 32.695 73.143 73.143 73.143 40.375 0 73.143-32.695 73.143-73.143h73.143c0 40.448 32.695 73.143 73.143 73.143h146.286c40.375 0 73.143-32.695 73.143-73.143h73.143c0 40.448 32.695 73.143 73.143 73.143 40.375 0 73.143-32.695 73.143-73.143v-219.429c0-40.375-32.768-73.143-73.143-73.143z" />
<glyph unicode="&#xe928;" glyph-name="ncr-gamer-mouse" horiz-adv-x="901" d="M567.644 897.782l187.904-140.923-52.613-497.521c-23.327-157.245-192.901-282.378-252.375-282.378-58.88 0-227.82 125.194-252.375 282.522l-52.613 497.377 187.884 140.923 117.105-234.168 117.084 234.168zM552.96 960l-102.4-204.8-102.4 204.8-245.76-184.32 55.153-521.482c26.767-175.473 209.94-318.198 293.007-318.198 83.046 0 267.53 142.725 293.007 318.198l55.153 521.482-245.76 184.32zM774.533 611.84h-20.439l-7.414-91.648c15.032-68.874 45.281-168.223 105.206-263.537-33.505-54.252-135.352-200.827-265.585-216.678l-53.821-42.537h31.089c198.349 0 337.551 260.403 337.551 260.403-112.271 164.557-126.587 353.997-126.587 353.997zM126.607 611.84h20.439l7.393-91.648c-15.032-68.874-45.261-168.223-105.206-263.537 33.505-54.252 135.393-200.827 265.605-216.678l53.801-42.537h-31.048c-198.41 0-337.592 260.403-337.592 260.403 112.292 164.557 126.607 353.997 126.607 353.997zM471.040 468.48c0-11.305-9.175-20.48-20.48-20.48v0c-11.305 0-20.48 9.175-20.48 20.48v81.92c0 11.305 9.175 20.48 20.48 20.48v0c11.305 0 20.48-9.175 20.48-20.48v-81.92z" />
<glyph unicode="&#xe929;" glyph-name="ncr-gaming-chair" horiz-adv-x="901" d="M782.828 58.88c20.705-3.85 69.939-28.488 77.332-42.721-0.164-17.449-2.662-30.904-5.1-39.199h-809.001c-2.458 8.315-4.936 21.75-5.1 39.199 7.373 14.234 56.627 38.83 77.312 42.721h664.556zM784.835 99.84h-668.57c-16.036 0-116.265-36.659-116.265-81.92 0-45.24 13.005-81.92 29.061-81.92h842.977c16.056 0 29.082 36.68 29.082 81.92 0 45.261-100.229 81.92-116.285 81.92v0zM442.286 918.999h2.314l5.632-0.102c90.685-1.597 120.975-7.393 131.011-10.752 4.239-7.823 5.284-24.945 5.919-35.676 0.451-7.434 0.881-14.459 1.987-21.32 0.164-1.065 17.285-106.967 41.144-134.82 14.868-17.326 58.102-57.221 75.878-72.233 6.861-5.816 14.582-10.875 22.753-16.22 8.581-5.632 26.44-17.347 28.815-22.548 3.133-19.374-7.496-58.778-17.818-96.87l-2.376-8.827c-15.729-58.45-23.491-96.707-0.471-203.551 3.502-16.282 8.131-34.243 13.066-53.248 11.366-43.971 24.904-96.399 27.628-142.991h-654.397c2.683 46.551 16.179 98.939 27.464 142.889 4.915 19.067 9.544 37.069 13.046 53.391 22.61 105.574 14.684 145.572-0.123 202.076l-0.307 1.188-3.932 14.909c-9.482 35.779-19.313 72.786-16.568 90.132 2.642 6.042 20.562 17.736 29.184 23.347 8.253 5.386 16.036 10.465 22.958 16.282 17.777 14.991 61.112 54.866 76.042 72.253 22.999 26.767 38.912 123.884 40.653 134.881 1.085 6.82 1.516 13.865 1.966 21.299 0.655 10.834 1.7 28.201 6.042 35.881 9.011 3.215 36.168 8.806 116.941 10.486l5.55 0.143zM450.949 960c0 0-2.703 0-7.148-0.061-4.915 0.061-7.905 0.061-7.905 0.061v-0.205c-35.779-0.737-126.054-2.765-143.483-20.275-21.893-22.016-17.838-61.481-21.074-81.92s-19.128-100.434-31.273-114.606-52.716-51.896-71.373-67.625c-18.657-15.749-61.071-33.628-65.946-63.508-4.854-29.88 8.11-73.339 21.074-122.88 12.964-49.521 21.893-82.084 0-184.3-13.967-65.167-48.742-165.519-40.714-245.801h734.904c8.008 80.282-26.89 180.675-40.919 245.821-21.975 102.052-13.537 133.98 0 184.3 13.312 49.439 25.928 93 21.074 122.88s-46.961 47.759-65.577 63.508c-18.596 15.729-59.085 53.453-71.229 67.625s-28.529 94.147-31.785 114.586c-3.236 20.439 0.778 59.904-21.074 81.92-17.592 17.736-119.030 19.64-157.553 20.316v0.164zM450.56 284.16l-143.36 81.92v-40.96l143.36-81.92 143.36 81.92v40.96zM450.56 407.040l-143.36 81.92v-40.96l143.36-81.92 143.36 81.92v40.96zM450.56 529.92l-143.36 81.92v-40.96l143.36-81.92 143.36 81.92v40.96z" />
<glyph unicode="&#xe92a;" glyph-name="ncr-headset" horiz-adv-x="901" d="M204.8 509.44v-327.68h-81.92c-45.179 0-81.92 36.741-81.92 81.92v163.84c0 45.158 36.741 81.92 81.92 81.92h81.92zM245.76 550.4h-122.88c-67.85 0-122.88-55.030-122.88-122.88v-163.84c0-67.85 55.030-122.88 122.88-122.88h122.88v409.6zM286.72 560.64v-409.6h-40.96v409.6h40.96zM286.72 601.6h-40.96c-22.61 0-40.96-18.35-40.96-40.96v-409.6c0-22.61 18.35-40.96 40.96-40.96h40.96c22.61 0 40.96 18.35 40.96 40.96v409.6c0 22.61-18.35 40.96-40.96 40.96v0zM778.24 509.44c45.158 0 81.92-36.741 81.92-81.92v-163.84c0-45.179-36.762-81.92-81.92-81.92h-81.92v327.68h81.92zM778.24 550.4h-122.88v-409.6h122.88c67.85 0 122.88 55.030 122.88 122.88v163.84c0 67.85-55.030 122.88-122.88 122.88v0zM655.36 560.64v-409.6h-40.96v409.6h40.96zM655.36 601.6h-40.96c-22.61 0-40.96-18.35-40.96-40.96v-409.6c0-22.61 18.35-40.96 40.96-40.96h40.96c22.61 0 40.96 18.35 40.96 40.96v409.6c0 22.61-18.35 40.96-40.96 40.96v0zM450.56 17.92c11.284 0 20.48-9.175 20.48-20.48s-9.196-20.48-20.48-20.48-20.48 9.175-20.48 20.48 9.196 20.48 20.48 20.48zM450.56 58.88c-33.915 0-61.44-27.505-61.44-61.44s27.525-61.44 61.44-61.44c33.935 0 61.44 27.505 61.44 61.44s-27.505 61.44-61.44 61.44v0zM757.76 99.84v-81.92c0-22.589-18.371-40.96-40.96-40.96h-266.24v-40.96h266.24c45.24 0 81.92 36.68 81.92 81.92v81.92h-40.96zM81.92 519.598v30.802c0 203.264 165.376 368.64 368.64 368.64s368.64-165.376 368.64-368.64v-35.758l40.96-30.556v66.314c0 226.222-183.378 409.6-409.6 409.6s-409.6-183.378-409.6-409.6v-57.18l40.96 26.378zM81.92 519.598v30.802c0 266.035 282.153 286.72 368.64 286.72s368.64-20.685 368.64-286.72v-35.758l40.96-30.556v66.314c0 226.222-183.378 327.68-409.6 327.68s-409.6-101.458-409.6-327.68v-57.18l40.96 26.378z" />
<glyph unicode="&#xe92b;" glyph-name="ncr-keyboard" horiz-adv-x="901" d="M684.36 632.32l175.8-127.386v-527.974h-167.444l-82.555 81.92h-317.645l-84.48-81.92h-167.076v527.974l175.8 127.386h467.599zM697.631 673.28h-494.141l-203.489-147.456v-589.824h224.645l84.48 81.92h284.16l82.555-81.92h225.28v589.824l-203.489 147.456zM430.080 304.558h-40.96v-40.96h40.96v40.96zM348.16 304.558h-40.96v-40.96h40.96v40.96zM225.28 263.598h40.96v40.96h-40.96v-40.96zM143.36 263.598h40.96v40.96h-40.96v-40.96zM716.8 263.598h40.96v40.96h-40.96v-40.96zM634.88 263.598h40.96v40.96h-40.96v-40.96zM593.92 304.558h-40.96v-40.96h40.96v40.96zM512 304.558h-40.96v-40.96h40.96v40.96zM430.080 386.519h-40.96v-40.98h40.96v40.98zM348.16 386.519h-40.96v-40.98h40.96v40.98zM225.28 345.539h40.96v40.98h-40.96v-40.98zM143.36 345.539h40.96v40.98h-40.96v-40.98zM716.8 345.539h40.96v40.98h-40.96v-40.98zM634.88 345.539h40.96v40.98h-40.96v-40.98zM593.92 386.519h-40.96v-40.98h40.96v40.98zM512 386.519h-40.96v-40.98h40.96v40.98zM430.080 468.46h-40.96v-40.98h40.96v40.98zM348.16 468.46h-40.96v-40.98h40.96v40.98zM225.28 427.479h40.96v40.98h-40.96v-40.98zM143.36 427.479h40.96v40.98h-40.96v-40.98zM716.8 468.46v-40.98h40.96v40.98h-40.96zM634.88 427.479h40.96v40.98h-40.96v-40.98zM593.92 468.46h-40.96v-40.98h40.96v40.98zM512 468.46h-40.96v-40.98h40.96v40.98zM430.080 550.4h-40.96v-40.96h40.96v40.96zM348.16 550.4h-40.96v-40.96h40.96v40.96zM593.92 550.4h-40.96v-40.96h40.96v40.96zM512 550.4h-40.96v-40.96h40.96v40.96zM307.139 140.8h286.863v40.735h-286.863v-40.735zM430.080 714.24h40.96v-40.96h-40.96v40.96zM675.84 960h-430.080v-40.96h430.080c33.874 0 61.44-27.566 61.44-61.44s-27.566-61.44-61.44-61.44h-61.44v-40.96h61.44c56.566 0 102.4 45.855 102.4 102.4s-45.834 102.4-102.4 102.4zM634.88 796.16h-122.88c-45.24 0-81.92-36.68-81.92-81.92h40.96c0 22.589 18.371 40.96 40.96 40.96h122.88v40.96z" />
<glyph unicode="&#xe92c;" glyph-name="ncr-mousepad-and-mouse" horiz-adv-x="901" d="M266.24 345.6l29.368-256.307c12.227-84.808 69.366-153.293 154.952-153.293 85.565 0 143.995 65.29 154.931 153.293l29.389 256.307-184.32 82.002-184.32-82.002zM564.859 94.351c-8.888-71.311-53.74-117.391-114.299-117.391-71.619 0-106.312 63.222-114.34 117.617l-25.866 225.833 140.206 62.341 140.206-62.362-25.907-226.038zM819.2 960h-737.28c-45.24 0-81.92-36.68-81.92-81.92v-655.36c0-45.24 36.68-81.92 81.92-81.92h143.36v40.96h-143.36c-22.589 0-40.96 18.371-40.96 40.96v655.36c0 22.589 18.371 40.96 40.96 40.96h503.521l274.719-274.719v-421.601c0-22.589-18.371-40.96-40.96-40.96h-143.36v-40.96h143.36c45.24 0 81.92 36.68 81.92 81.92v655.36c0 45.24-36.68 81.92-81.92 81.92zM643.379 919.040h175.821c22.589 0 40.96-18.371 40.96-40.96v-175.821l-216.781 216.781zM430.080 284.795v-42.25c0-10.936 8.888-19.825 19.845-19.825h1.29c10.936 0 19.825 8.888 19.825 19.845v42.25c0 10.936-8.888 19.825-19.845 19.825h-1.29c-10.936 0-19.825-8.888-19.825-19.845z" />
<glyph unicode="&#xe92d;" glyph-name="ncr-screen" horiz-adv-x="901" d="M842.977 222.72h-784.835c-32.113 0-58.143 26.399-58.143 58.962v619.336c0 32.563 26.030 58.982 58.143 58.982h784.835c32.113 0 58.143-26.419 58.143-58.982v-619.336c0-32.563-26.030-58.962-58.143-58.962zM860.16 919.040h-819.2v-491.52h819.2v491.52zM860.16 386.376h-819.2v-122.778h819.2v122.778zM471.040 304.558h-40.96v40.98h40.96v-40.98zM665.006 17.92l38.707-40.96h-506.286l38.687 40.96h428.892zM682.66 58.88h-464.2l-116.060-122.88h696.32l-116.060 122.88zM541.45 222.72l40.98-163.84h-263.721l40.96 163.84h181.78zM573.42 263.68h-245.74l-61.44-245.76h368.64l-61.46 245.76z" />
<glyph unicode="&#xe92e;" glyph-name="ncr-support" d="M950.857 301.714h-292.571v-292.571c0-40.448-32.695-73.143-73.143-73.143h-146.286c-40.375 0-73.143 32.695-73.143 73.143v292.571h-292.571c-40.375 0-73.143 32.768-73.143 73.143v146.286c0 40.448 32.768 73.143 73.143 73.143h292.571v292.571c0 40.448 32.768 73.143 73.143 73.143h146.286c40.448 0 73.143-32.695 73.143-73.143v-292.571h292.571c40.448 0 73.143-32.695 73.143-73.143v-146.286c0-40.375-32.695-73.143-73.143-73.143z" />
<glyph unicode="&#xe92f;" glyph-name="ncr-team-shield" horiz-adv-x="948" d="M742.721 959.469h-507.583l-1.627-46.912c-4.83-92.573-72.315-170.828-163.876-188.942l-35.876-7.098 4.615-36.394c44.28-349.212 182.765-625.355 454.885-738.322l15.254-6.332 29.96 12.915c262.348 117.5 395.409 389.127 438.823 731.743l4.611 36.392-35.873 7.097-8.773 1.936c-86.947 21.2-149.974 97.081-155.079 186.709l-0.316 9.007-39.144-0.25v38.452zM308.806 880.915h398.016c15.875-103.398 87.614-189.768 185.984-224.032l2.16-0.672-0.064-0.609c-43.743-295.933-161.026-526.851-375.369-629.488l-11.308-5.209-10.279 4.721c-210.849 100.4-328.643 324.822-374.507 612.616l-2.778 17.968 2.985 0.949c97.218 34.197 168.505 119.433 184.893 221.807l0.266 1.947zM606.815 694.519l-227.556-189.63 114.157-75.852 113.399 265.481zM379.259 277.333l227.556 189.63-114.157 75.852-113.399-265.481z" />
<glyph unicode="&#xf101;" glyph-name="user-scores" d="M307.2 512h409.6v-102.4h-409.6v102.4zM307.2 665.6h409.6v-102.4h-409.6v102.4zM870.4 870.4h-716.8c-28.32 0-51.2-22.88-51.2-51.2v-563.2c0-28.32 22.88-51.2 51.2-51.2h102.4v-153.6l230.4 153.6h384c28.32 0 51.2 22.88 51.2 51.2v563.2c0 28.32-22.88 51.2-51.2 51.2zM819.2 307.2h-332.8l-128-76.8v76.8h-153.6v460.8h614.4v-460.8z" />
<glyph unicode="&#xf105;" glyph-name="copy" d="M358.4 410.4h-153.6v409.6h307.2v-155.2h102.4v222.4c0 12.32-22.88 35.2-51.2 35.2h-409.6c-28.32 0-51.2-22.88-51.2-51.2v-512c0-28.32 22.88-51.2 51.2-51.2h204.8v102.4zM512 101.6h307.2v409.6h-307.2v-409.6zM870.4 613.6c28.32 0 51.2-22.88 51.2-51.2v-512c0-28.32-22.88-51.2-51.2-51.2h-409.6c-28.32 0-51.2 22.88-51.2 51.2v512c0 28.32 22.88 51.2 51.2 51.2h409.6z" />
<glyph unicode="&#xf108;" glyph-name="calculator" d="M819.2 870.4h-614.4c-28.32 0-51.2-22.88-51.2-51.2v-716.8c0-28.32 22.88-51.2 51.2-51.2h614.4c28.32 0 51.2 22.88 51.2 51.2v716.8c0 28.32-22.88 51.2-51.2 51.2zM358.4 153.6h-102.4v102.4h102.4v-102.4zM358.4 307.2h-102.4v102.4h102.4v-102.4zM358.4 460.8h-102.4v102.4h102.4v-102.4zM563.2 153.6h-102.4v102.4h102.4v-102.4zM563.2 307.2h-102.4v102.4h102.4v-102.4zM563.2 460.8h-102.4v102.4h102.4v-102.4zM768 153.6h-102.4v102.4h102.4v-102.4zM768 307.2h-102.4v102.4h102.4v-102.4zM768 460.8h-102.4v102.4h102.4v-102.4zM768 665.6h-512v102.4h512v-102.4z" />
<glyph unicode="&#xf111;" glyph-name="sportspress" d="M969.76 657.92l-61.44-445.28c-15.36-108.64-73.44-161.28-185.44-161.28h-528.64c-111.84 0-155.68 52.64-140.32 161.28l61.44 445.28c16.48 108.64 74.56 161.28 186.4 161.28h528.64c112-0.16 155.84-52.8 139.36-161.28zM413.76 718.080c-85.76 0-134.88-60.16-146.56-148.96l-9.76-72c-12.64-88.8 20.8-139.36 106.72-139.36h200.32c27.040 0 22.4-23.68 22.4-23.68-2.88-17.6-12.64-26.4-30.24-26.4h-333.92l-20.16-153.92h403.2c85.76 0 131.68 40.96 144.32 129.76l14.56 99.2c12.64 88.8-21.44 129.76-107.2 129.76h-201.44c-17.6 0-25.28 8.8-23.36 26.4 0 0-1.12 23.68 29.6 23.68h332.8l21.76 155.52h-403.040z" />
<glyph unicode="&#xf112;" glyph-name="key" d="M921.6 665.6l-51.2 51.2-52.8-51.2v-102.4l-49.6-51.2-51.2 51.2-51.2-51.2v-102.4l-59.68-59.68c5.44-21.92 8.48-44.8 8.48-68.32 0-155.52-126.080-281.6-281.6-281.6s-281.6 126.080-281.6 281.6 126.080 281.6 281.6 281.6c37.76 0 73.92-7.52 106.88-20.96l377.92 379.36h155.2v-204.8l-51.2-51.2zM256 307.2c-56.48 0-102.4-45.92-102.4-102.4s45.92-102.4 102.4-102.4 102.4 45.92 102.4 102.4-45.92 102.4-102.4 102.4zM844.8 870.4c-8 0-15.040-3.68-19.84-9.44l-303.52-303.52c-5.76-4.64-9.44-11.84-9.44-19.84 0-14.080 11.52-25.6 25.6-25.6 7.040 0 13.44 2.88 18.080 7.52l0.16-0.16 307.2 307.2-0.16 0.16c4.64 4.64 7.52 11.040 7.52 18.24 0 13.92-11.36 25.44-25.6 25.44z" />
<glyph unicode="&#xf113;" glyph-name="update" d="M512 819.2q78.848 0 148.736-32.256t120.064-89.6l-87.552-99.84q-31.744 41.984-79.36 66.56t-101.888 24.576q-80.384 0-142.080-50.176t-79.104-126.464h118.784l-179.2-204.8-179.2 204.8h106.496q12.288 86.016 61.952 156.16t126.72 110.592 165.632 40.448zM512 100.352q-79.36 0-148.992 32.256t-119.808 89.6l87.552 99.84q31.744-41.984 79.36-66.56t101.888-24.576q80.384 0 142.080 50.176t79.104 126.464h-118.784l179.2 204.8 179.2-204.8h-106.496q-9.216-64.512-40.704-121.088t-78.080-97.536-107.776-64.768-127.744-23.808z" />
<glyph unicode="&#xf116;" glyph-name="menu" d="M870.4 51.2h-716.8c-28.32 0-51.2 22.88-51.2 51.2v716.8c0 28.32 22.88 51.2 51.2 51.2h716.8c28.32 0 51.2-22.88 51.2-51.2v-716.8c0-28.32-22.88-51.2-51.2-51.2zM819.2 768h-614.4v-153.6h614.4v153.6zM819.2 512h-614.4v-358.4h614.4v358.4zM358.4 665.6h-102.4v51.2h102.4v-51.2zM460.8 665.6h-51.2v51.2h51.2v-51.2zM563.2 665.6h-51.2v51.2h51.2v-51.2zM665.6 665.6h-51.2v51.2h51.2v-51.2zM768 665.6h-51.2v51.2h51.2v-51.2z" />
<glyph unicode="&#xf145;" glyph-name="calendar" d="M768 870.4h-102.4v-102.4h102.4v102.4zM870.4 870.4h-51.2v-153.6h-204.8v153.6h-204.8v-153.6h-204.8v153.6h-51.2c-28.32 0-51.2-22.88-51.2-51.2v-716.8c0-28.32 22.88-51.2 51.2-51.2h716.8c28.32 0 51.2 22.88 51.2 51.2v716.8c0 28.32-22.88 51.2-51.2 51.2zM819.2 153.6h-614.4v460.8h614.4v-460.8zM358.4 870.4h-102.4v-102.4h102.4v102.4zM563.2 512h-102.4v-102.4h102.4v102.4zM716.8 512h-102.4v-102.4h102.4v102.4zM409.6 358.4h-102.4v-102.4h102.4v102.4zM409.6 512h-102.4v-102.4h102.4v102.4zM563.2 358.4h-102.4v-102.4h102.4v102.4zM716.8 358.4h-102.4v-102.4h102.4v102.4z" />
<glyph unicode="&#xf147;" glyph-name="eye" d="M512 853.334c-185.61 0-371.194-132.75-512-398.222 140.806-265.472 326.39-398.222 512-398.222s371.194 132.75 512 398.222c-140.806 265.472-326.39 398.222-512 398.222zM512 170.668c-134.972 0-271.89 102.86-381.334 284.444 109.444 181.584 246.36 284.444 381.334 284.444s271.89-102.86 381.334-284.444c-109.444-181.584-246.36-284.444-381.334-284.444zM625.778 455.112c0-62.834-50.944-113.778-113.778-113.778s-113.778 50.944-113.778 113.778 50.944 113.778 113.778 113.778 113.778-50.944 113.778-113.778z" />
<glyph unicode="&#xf155;" glyph-name="star-filled" d="M512 921.6l153.6-307.2 307.2-38.4-210.944-236.544 57.344-339.456-307.2 153.6-307.2-153.6 57.856 339.456-211.456 236.544 307.2 38.4z" />
<glyph unicode="&#xf158;" glyph-name="no" d="M796.16 271.36l-112.128-105.472-175.104 186.88-186.368-175.616-105.472 111.616 186.368 175.616-175.104 186.368 111.616 105.472 175.616-186.368 186.368 175.104 104.96-111.616-186.368-175.616z" />
<glyph unicode="&#xf159;" glyph-name="marker" d="M512 870.4q83.456 0 159.232-32.512t130.56-87.296 87.296-130.56 32.512-159.232-32.512-159.232-87.296-130.56-130.56-87.296-159.232-32.512-159.232 32.512-130.56 87.296-87.296 130.56-32.512 159.232 32.512 159.232 87.296 130.56 130.56 87.296 159.232 32.512zM512 204.8q69.632 0 128.512 34.304t93.184 93.184 34.304 128.512-34.304 128.512-93.184 93.184-128.512 34.304-128.512-34.304-93.184-93.184-34.304-128.512 34.304-128.512 93.184-93.184 128.512-34.304z" />
<glyph unicode="&#xf163;" glyph-name="list" d="M307.2 665.6h102.4v-102.4h-102.4v102.4zM307.2 512h102.4v-102.4h-102.4v102.4zM307.2 358.4h102.4v-102.4h-102.4v102.4zM512 358.4h204.8v-102.4h-204.8v102.4zM870.4 870.4h-716.8c-28.32 0-51.2-22.88-51.2-51.2v-716.8c0-28.32 22.88-51.2 51.2-51.2h716.8c28.32 0 51.2 22.88 51.2 51.2v716.8c0 28.32-22.88 51.2-51.2 51.2zM819.2 153.6h-614.4v614.4h614.4v-614.4zM512 512h204.8v-102.4h-204.8v102.4zM512 665.6h204.8v-102.4h-204.8v102.4z" />
<glyph unicode="&#xf164;" glyph-name="blocks" d="M307.2 358.4h409.6v-102.4h-409.6v102.4zM307.2 512h409.6v-102.4h-409.6v102.4zM870.4 870.4h-716.8c-28.32 0-51.2-22.88-51.2-51.2v-716.8c0-28.32 22.88-51.2 51.2-51.2h716.8c28.32 0 51.2 22.88 51.2 51.2v716.8c0 28.32-22.88 51.2-51.2 51.2zM819.2 153.6h-614.4v614.4h614.4v-614.4zM307.2 665.6h409.6v-102.4h-409.6v102.4z" />
<glyph unicode="&#xf171;" glyph-name="undo" d="M882.176 455.68q40.448-95.232 40.448-199.68t-40.448-199.68l-142.336 59.904q28.16 67.584 28.16 139.776 0 72.704-28.16 139.264-26.624 64-76.8 114.176-49.664 49.664-113.664 76.8-67.584 28.16-139.776 28.16v-153.6l-307.2 230.4 307.2 230.4v-152.576q104.448 0 199.68-40.448 93.184-39.424 162.816-110.080 70.656-69.632 110.080-162.816z" />
<glyph unicode="&#xf172;" glyph-name="redo" d="M141.824 455.68q39.424 93.184 110.080 162.816 69.632 70.656 162.816 110.080 95.232 40.448 199.68 40.448v152.576l307.2-230.4-307.2-230.4v153.6q-72.192 0-139.776-28.16-63.488-27.136-113.664-76.8-50.176-50.176-76.8-114.176-28.16-66.56-28.16-139.264 0-72.192 28.16-139.776l-142.336-59.904q-40.448 95.232-40.448 199.68t40.448 199.68z" />
<glyph unicode="&#xf174;" glyph-name="woo" d="M605.44 524.8c0 6.4-2.88 48.16-26.080 48.16-34.88 0-43.52-67.36-43.52-77.12 0-3.2 2.88-54.56 26.080-54.56 31.84 0 43.52 67.36 43.52 83.52v0zM793.92 524.8c0 6.4-2.88 48.16-26.080 48.16-34.72 0-43.52-67.36-43.52-77.12 0-3.2 2.88-54.56 26.080-54.56 31.84 0 43.52 67.36 43.52 83.52v0zM166.4 921.6c-63.68 0-115.2-51.68-115.2-115.52v-606.72c0-63.84 51.52-115.52 115.2-115.52h316.8l115.2-115.52v115.52h259.2c63.68 0 115.2 51.68 115.2 115.52v606.72c0 63.84-51.52 115.52-115.2 115.52h-691.2zM657.6 528c0-51.36-28.96-144.48-95.68-144.48-5.76 0-17.28 3.36-23.68 5.6-30.24 10.4-46.88 46.4-48.8 61.76 0 0-2.88 16.64-2.88 37.92 0 21.44 2.88 42.24 2.88 42.24 14.56 70.56 40.64 99.52 89.92 99.52 55.040 0.16 78.24-54.4 78.24-102.56v0zM488.16 640.32c0-3.2-40.64-131.68-40.64-199.040v-70.56c-2.4-11.2-3.84-22.56-20.32-22.56-43.52 0-82.88 141.28-85.76 150.88-5.76-6.4-58.080-150.88-89.92-150.88-23.2 0-40.64 105.92-43.52 115.52-8.64 51.36-24.32 146.88-24.32 153.28 0 19.2 1.12 36.16 24.32 36.16 5.76 0 20.16-5.6 22.080-16 10.88-57.92 15.52-112.32 27.2-173.44 1.76-2.72 1.44-6.56 4.32-9.76 2.88 9.6 62.4 157.44 88.48 157.44 20.96 0 28.32-41.6 31.2-57.6 5.76-19.2 12.16-51.52 20.96-77.12 0 12.8 11.68 189.44 60.96 189.44 17.44 0 24.96-6.56 24.96-25.76v0zM846.080 528c0-51.36-28.96-144.48-95.68-144.48-5.76 0-17.28 3.36-23.68 5.6-30.24 10.4-46.72 46.4-48.8 61.76 0 0-3.68 16.64-3.68 38.080s3.68 42.080 3.68 42.080c14.56 70.56 40.48 99.52 89.92 99.52 55.040 0.16 78.24-54.4 78.24-102.56v0z" />
<glyph unicode="&#xf179;" glyph-name="yoast-seo" d="M410.4 197.28c12.96 33.12 12.96 69.76 0 103.040l-151.36 389.12h135.2l91.040-284.96 142.72 396h-383.84c-79.68 0-144.96-65.28-144.96-144.96v-385.6c0-79.68 65.28-144.96 144.96-144.96h108c30.4 16.8 46.88 43.040 58.24 72.32zM921.6 655.36c0 79.68-65.28 144.96-144.96 144.96h-5.76l-203.84-545.92c-18.24-50.88-36.96-94.080-57.76-129.76h412.32v530.72zM666.72 948.16l-177.92-494.24-80.32 251.52h-169.92l159.84-410.4c11.52-29.6 11.52-61.92 0-91.52-14.080-36.16-36.16-71.2-101.12-79.84l-13.76-1.92v-144.96h15.84c155.84 0 226.72 109.12 285.28 272.48l260.64 698.88h-178.56zM555.040 260.16c-62.72-175.52-128.96-245.44-239.68-251.36v85.76c71.52 14.24 97.92 59.2 112.64 97.44 14.24 36.8 14.24 77.6 0 114.4l-143.040 367.52h100.64l101.6-318.080 202.080 560.8h110.88l-245.12-656.48z" />
<glyph unicode="&#xf181;" glyph-name="bracket-center" d="M870.4 410.4h102.4c28.32 0 51.2-22.88 51.2-51.2v-204.8c0-28.32-22.88-51.2-51.2-51.2h-102.4c-28.32 0-51.2 22.88-51.2 51.2v51.2h-102.4c-28.32 0-51.2 22.88-51.2 51.2v153.6h-51.2v-51.2c0-28.32-22.88-51.2-51.2-51.2h-102.4c-28.32 0-51.2 22.88-51.2 51.2v51.2h-51.2v-153.6c0-28.32-22.88-51.2-51.2-51.2h-102.4v-51.2c0-28.32-22.88-51.2-51.2-51.2h-102.4c-28.32 0-51.2 22.88-51.2 51.2v204.8c0 28.32 22.88 51.2 51.2 51.2h102.4c28.32 0 51.2-22.88 51.2-51.2v-51.2h51.2v307.2h-51.2v-51.2c0-28.32-22.88-51.2-51.2-51.2h-102.4c-28.32 0-51.2 22.88-51.2 51.2v204.8c0 28.32 22.88 51.2 51.2 51.2h102.4c28.32 0 51.2-22.88 51.2-51.2v-51.2h102.4c28.32 0 51.2-22.88 51.2-51.2v-153.6h51.2v51.2c0 28.32 22.88 51.2 51.2 51.2h102.4c28.32 0 51.2-22.88 51.2-51.2v-51.2h51.2v153.6c0 28.32 22.88 51.2 51.2 51.2h102.4v51.2c0 28.32 22.88 51.2 51.2 51.2h102.4c28.32 0 51.2-22.88 51.2-51.2v-204.8c0-28.32-22.88-51.2-51.2-51.2h-102.4c-28.32 0-51.2 22.88-51.2 51.2v51.2h-51.2v-307.2h51.2v51.2c0 28.32 22.88 51.2 51.2 51.2z" />
<glyph unicode="&#xf182;" glyph-name="trash" d="M576 512h128v-320h-128zM960 768h-256v128c0 35.376-28.624 64-64 64h-256c-35.376 0-64-28.624-64-64v-128h-256c-35.376 0-64-28.624-64-64v-64h64v-640c0-35.376 28.624-64 64-64h768c35.376 0 64 28.624 64 64v640h64v64c0 35.376-28.624 64-64 64zM448 832h128v-64h-128v64zM832 64h-640v576h640v-576zM320 512h128v-320h-128z" />
<glyph unicode="&#xf185;" glyph-name="chart" d="M153.6 204.8h204.8v409.6h-204.8v-409.6zM409.6 204.8h204.8v614.4h-204.8v-614.4zM665.6 614.4v-409.6h204.8v409.6h-204.8z" />
<glyph unicode="&#xf203;" glyph-name="timeline" d="M914.4 140l-109.6-83.2c-4.8-3.68-10.88-5.6-17.92-5.6s-13.12 1.92-17.92 5.6v45.6h-373.76c-9.12-15.52-21.28-27.84-36.8-37.12s-32.48-14.080-51.2-14.080c-28.32 0-52.48 9.92-72.32 30.080s-30.080 44-30.080 72.32c0 28.32 9.92 52.48 30.080 72.32s44 30.080 72.32 30.080c18.72 0 35.68-4.64 51.2-14.080s27.68-21.76 36.8-37.12h373.6v46.4c4.8 3.68 10.88 5.6 17.92 5.6s13.12-1.92 17.92-5.6l109.6-83.2c4.8-3.68 7.2-8.32 7.2-14.080s-2.24-10.24-7.040-13.92zM702.4 672c-4.8-4.32-10.88-6.4-17.92-6.4s-13.12 2.080-17.92 6.4v44.8h-373.76c-9.12-15.52-21.28-27.84-36.8-37.12s-32.48-14.080-51.2-14.080c-28.32 0-52.48 9.92-72.32 30.080s-30.080 44-30.080 72.32 9.92 52.48 30.080 72.32 44 30.080 72.32 30.080c18.72 0 35.68-4.64 51.2-14.080s27.68-21.76 36.8-37.12h373.6v46.4c4.8 3.68 10.88 5.6 17.92 5.6s13.28-1.92 18.080-5.6l109.6-83.2c4.8-3.68 7.2-8.32 7.2-13.6s-2.4-10.080-7.2-14.4l-109.6-82.4zM256 563.2c18.72 0 35.68-4.64 51.2-14.080 15.52-9.28 27.68-21.76 36.8-37.12h182.4c9.12 15.52 21.28 27.84 36.8 37.12s32.48 14.080 51.2 14.080c28.32 0 52.48-9.92 72.32-30.080s30.080-44 30.080-72.32c0-28.32-9.92-52.48-30.080-72.32s-44-30.080-72.32-30.080c-18.72 0-35.68 4.64-51.2 14.080s-27.68 21.76-36.8 37.12h-182.4c-9.12-15.52-21.28-27.84-36.8-37.12s-32.48-14.080-51.2-14.080c-28.32 0-52.48 9.92-72.32 30.080s-30.080 44-30.080 72.32c0 28.32 9.92 52.48 30.080 72.32s44 30.080 72.32 30.080zM614.72 409.6c14.080 0 26.080 5.12 36 15.2s14.72 22.24 14.72 36.48c0 14.080-4.96 26.080-14.72 36s-21.92 14.72-36 14.72-26.24-4.96-36.48-14.72-15.2-21.92-15.2-36c0-14.080 5.12-26.24 15.2-36.48s22.4-15.2 36.48-15.2z" />
<glyph unicode="&#xf227;" glyph-name="whistle" d="M603.68 512c6.88-24.48 10.72-50.24 10.72-76.8 0-155.52-126.080-281.6-281.6-281.6s-281.6 126.080-281.6 281.6 126.080 281.6 281.6 281.6h179.2v-51.2c0-28.32 22.88-51.2 51.2-51.2s51.2 22.88 51.2 51.2v51.2h358.4v-204.8h-369.12z" />
<glyph unicode="&#xf231;" glyph-name="location" d="M991.59 45.978l-69.99 210.022h-76.8l42.65-204.8h-750.9l42.65 204.8h-76.8l-70.042-210.022c-17.766-53.452 13.722-97.178 70.042-97.178h819.2c56.32 0 87.808 43.726 69.99 97.178zM768 716.8c0 141.364-114.586 256-256 256s-256-114.636-256-256c0-244.48 256-512 256-512s256 267.52 256 512zM373.76 713.728c0 76.338 61.85 138.188 138.24 138.188s138.24-61.85 138.24-138.188c0-76.39-61.9-138.24-138.24-138.24s-138.24 61.9-138.24 138.24z" />
<glyph unicode="&#xf237;" glyph-name="minimal" d="M716 409.6v-153.6c0-28.32-22.88-51.2-51.2-51.2h-256v-51.2c0-28.32-22.88-51.2-51.2-51.2h-256v102.4h204.8v102.4h-204.8v102.4h256c28.32 0 51.2-22.88 51.2-51.2v-51.2h204.8v307.2h-204.8v-51.2c0-28.32-22.88-51.2-51.2-51.2h-256v102.4h204.8v102.4h-204.8v102.4h256c28.32 0 51.2-22.88 51.2-51.2v-51.2h256c28.32 0 51.2-22.88 51.2-51.2v-153.6h204.8v-102.4h-204.8z" />
<glyph unicode="&#xf306;" glyph-name="instagram" d="M919.2 291.84c-1.92-43.68-8.96-73.44-19.040-99.36-10.4-26.88-24.48-49.76-47.2-72.48-22.88-22.88-45.6-36.8-72.48-47.2-26.080-10.080-55.84-17.12-99.36-19.040-43.68-1.92-57.6-2.4-168.8-2.4s-125.28 0.48-168.8 2.4c-43.68 1.92-73.44 8.96-99.36 19.040-26.88 10.4-49.76 24.48-72.48 47.2-22.88 22.88-36.8 45.6-47.2 72.48-10.080 26.080-17.12 55.84-19.040 99.36-2.24 43.68-2.72 57.6-2.72 168.8s0.48 125.28 2.4 168.8c1.92 43.68 8.96 73.44 19.040 99.36 10.4 26.88 24.48 49.76 47.2 72.48 22.88 22.88 45.6 36.8 72.48 47.2 26.080 10.080 55.84 17.12 99.36 19.040 43.68 2.4 57.6 2.88 168.8 2.88s125.28-0.48 168.8-2.4c43.68-1.92 73.44-8.96 99.36-19.040 27.040-10.56 49.92-24.48 72.64-47.36 22.88-22.88 36.8-45.6 47.2-72.48 10.080-26.080 17.12-55.84 19.040-99.36 1.92-43.68 2.4-57.6 2.4-168.8s-0.16-125.44-2.24-169.12zM845.44 626.24c-1.92 39.84-8.48 61.76-14.080 76.16-7.52 19.040-16.32 32.8-30.56 47.2s-28 23.040-47.2 30.56c-14.4 5.6-36 12.32-76.16 14.080-43.2 1.92-56.16 2.4-165.44 2.4s-122.24-0.48-165.44-2.4c-39.84-1.92-61.76-8.48-76.16-14.080-19.040-7.52-32.8-16.32-47.2-30.56s-23.040-28-30.56-47.2c-5.6-14.4-12.32-36-14.080-76.16-1.92-43.2-2.4-56.16-2.4-165.44s0.48-122.24 2.4-165.44c1.92-39.84 8.48-61.76 14.080-76.16 7.52-19.040 16.32-32.8 30.56-47.2s28-23.2 47.2-30.56c14.4-5.6 36-12.32 76.16-14.080 43.2-1.92 56.16-2.4 165.44-2.4s122.24 0.48 165.44 2.4c39.84 1.92 61.76 8.48 76.16 14.080 19.040 7.52 32.8 16.32 47.2 30.56s23.2 28 30.56 47.2c5.6 14.4 12.32 36 14.080 76.16 1.92 43.2 2.4 56.16 2.4 165.44s-0.32 122.24-2.4 165.44zM730.72 630.24c-27.040 0-49.12 21.92-49.12 49.12s21.92 49.12 49.12 49.12c27.040 0 49.12-21.92 49.12-49.12s-21.92-49.12-49.12-49.12zM512 250.4c-116.16 0-210.4 94.080-210.4 210.4s94.24 210.4 210.4 210.4 210.4-94.24 210.4-210.4-94.24-210.4-210.4-210.4zM512 597.28c-75.36 0-136.48-61.12-136.48-136.48s61.12-136.48 136.48-136.48 136.48 61.12 136.48 136.48-60.96 136.48-136.48 136.48z" />
<glyph unicode="&#xf307;" glyph-name="tshirt" d="M919.2 614.4h-153.6v-358.4h-512v358.4h-153.6v204.8h264.8c21.12-59.68 77.92-102.4 144.8-102.4s123.68 42.72 144.8 102.4h264.8v-204.8zM765.6 204.8v-102.4h-512v102.4h512z" />
<glyph unicode="&#xf309;" glyph-name="color" d="M870.4 409.6c0-197.92-160.48-358.4-358.4-358.4s-358.4 160.48-358.4 358.4c0 99.040 40.16 188.64 104.96 253.44v0l253.44 253.44 253.44-253.44c64.8-64.8 104.96-154.4 104.96-253.44zM686.56 596l-174.88 174.88-178.080-178.080c-47.68-46.56-77.6-111.2-77.6-183.2 0-141.44 114.56-256 256-256s256 114.56 256 256c0 73.76-31.52 139.68-81.44 186.4zM512 204.8l0.16 493.6 140.8-140.8c39.2-37.28 63.84-89.6 63.84-148 0-113.12-91.68-204.8-204.8-204.8z" />
<glyph unicode="&#xf313;" glyph-name="tournament" d="M768 572v298.4h51.2c28.32 0 51.2-22.88 51.2-51.2v-102.4c0-66.88-42.72-123.68-102.4-144.8zM307.2 103.040h409.6v-103.040h-409.6v103.040zM358.4 153.6l51.2 51.2h51.2v51.2l51.2 51.2 51.2-51.2v-51.2h51.2l51.2-51.2h-307.2zM512 358.4c-113.12 0-204.8 91.68-204.8 204.8v358.4h409.6v-358.4c0-113.12-91.68-204.8-204.8-204.8zM153.6 716.8v102.4c0 28.32 22.88 51.2 51.2 51.2h51.2v-298.4c-59.68 21.12-102.4 77.92-102.4 144.8z" />
<glyph unicode="&#xf314;" glyph-name="grid" d="M716.8 665.6h-102.4v-102.4h102.4v102.4zM409.6 512h-102.4v-102.4h102.4v102.4zM716.8 512h-102.4v-102.4h102.4v102.4zM870.4 870.4h-716.8c-28.32 0-51.2-22.88-51.2-51.2v-716.8c0-28.32 22.88-51.2 51.2-51.2h716.8c28.32 0 51.2 22.88 51.2 51.2v716.8c0 28.32-22.88 51.2-51.2 51.2zM819.2 153.6h-614.4v614.4h614.4v-614.4zM563.2 665.6h-102.4v-102.4h102.4v102.4zM409.6 358.4h-102.4v-102.4h102.4v102.4zM563.2 358.4h-102.4v-102.4h102.4v102.4z" />
<glyph unicode="&#xf316;" glyph-name="import" d="M870.4 512c-28.32 0-51.2-22.88-51.2-51.2v-307.2h-614.4v307.2c0 28.32-22.88 51.2-51.2 51.2s-51.2-22.88-51.2-51.2v-358.4c0-28.32 22.88-51.2 51.2-51.2h716.8c28.32 0 51.2 22.88 51.2 51.2v358.4c0 28.32-22.88 51.2-51.2 51.2zM563.2 512v313.44c0 24.8-22.88 44.96-51.2 44.96s-51.2-20.16-51.2-44.96v-313.44h-153.6l204.8-204.8 204.8 204.8h-153.6z" />
<glyph unicode="&#xf317;" glyph-name="export" d="M870.4 512c-28.32 0-51.2-22.88-51.2-51.2v-307.2h-614.4v307.2c0 28.32-22.88 51.2-51.2 51.2s-51.2-22.88-51.2-51.2v-358.4c0-28.32 22.88-51.2 51.2-51.2h716.8c28.32 0 51.2 22.88 51.2 51.2v358.4c0 28.32-22.88 51.2-51.2 51.2zM460.8 358.4c0-28.32 22.88-51.2 51.2-51.2s51.2 22.88 51.2 51.2v307.2h153.6l-204.8 204.8-204.8-204.8h153.6v-307.2z" />
<glyph unicode="&#xf319;" glyph-name="globe" d="M512 51.2c-226.24 0-409.6 183.36-409.6 409.6s183.36 409.6 409.6 409.6 409.6-183.36 409.6-409.6-183.36-409.6-409.6-409.6zM512 768c-169.6 0-307.2-137.6-307.2-307.2s137.6-307.2 307.2-307.2 307.2 137.6 307.2 307.2-137.6 307.2-307.2 307.2zM662.56 276.16l-8.96-5.28-25.92-15.84-15.36-11.2c-11.36-5.44-23.36-9.76-35.52-13.44v15.040l-4.32 34.72c0 0-2.080 20-5.44 25.28-3.2 5.28-10.88 12.64-18.4 15.84s-12.96 3.2-17.28 8.32c-4.32 5.28-7.68 14.72-12.96 23.2-5.44 8.48-12 16.96-12 21.12s0 47.52 0 47.52l5.44 40 11.84 8.48 14.080 15.84 9.76 3.2 33.6-6.24h23.68l9.76-20 22.72-17.92 14.080-22.080 18.4-6.24h20.64l14.080-16.96 8.64-17.92 3.2-12.64v-21.12l-2.24-12.48c-13.6-22.56-31.040-42.4-51.52-59.2v0 0zM578.72 639.84l-23.84-12.64-8.64-24.32-14.080-12.64h-46.72l-21.6-8.48-1.12-16.8-8.64-13.76-2.24-14.72 4.32-12.64 5.44-12.64c0 0 13.12-14.72 0-25.28 0 0-16.32 0-19.52 5.28s-27.040 20-31.52 24.32c-4.32 4.16-18.4 8.32-18.4 8.32l-17.28 6.4-16.32 1.12 1.12 22.080-1.12 18.88-6.56 13.76-18.4 13.76-1.12 14.72 2.24 8.16c43.84 42.4 104.32 68.8 171.2 68.8 37.76 0 72.96-9.12 104.8-24l-0.64-5.6-31.36-22.080z" />
<glyph unicode="&#xf321;" glyph-name="history" d="M574.822 880.64c-227.634 0-412.724-182.374-418.252-409.344h-125.85l188.366-209.972 188.314 209.972h-146.226c5.53 169.012 143.77 304.384 313.652 304.384 173.364 0 313.856-140.954 313.856-314.88s-140.492-314.88-313.856-314.88c-69.53 0-133.734 22.732-185.754 61.082l-71.986-77.004c71.066-55.756 160.512-89.038 257.74-89.038 231.116 0 418.51 187.956 418.51 419.84-0.052 231.884-187.442 419.84-418.51 419.84zM537.6 686.080v-240.128l153.856-153.856 50.688 50.688-132.864 132.864v210.432h-71.68z" />
<glyph unicode="&#xf322;" glyph-name="archive" d="M819.68 665.6c0 51.52-51.2 51.52-51.2 51.52h-512.48c0 0-51.2 0-51.2-51.52v-51.52h614.88v51.52zM665.92 820h-307.36c0 0-51.2 0-51.2-51.52h409.76c0 51.52-51.2 51.52-51.2 51.52s0 0 0 0zM898.72 618.88c-28.64 25.44-28.64 25.44-28.64 25.44v-81.44h-716v81.44c0 0 0 0-28.64-25.44s-49.12-32.32-37.6-86.24c11.36-53.6 66.88-348 75.2-387.84 9.12-43.68 59.040-43.040 59.040-43.040h579.84c0 0 50.080-0.64 59.040 43.040 8.32 39.84 63.68 334.080 75.2 387.84 11.68 53.92-8.8 60.8-37.44 86.24v0 0zM717.28 358.4c0 0 0-51.52-51.36-51.52h-307.52c-51.2 0-51.2 51.52-51.2 51.52v103.040h52.48v-101.76h306.56v101.76h51.040v-103.040z" />
<glyph unicode="&#xf325;" glyph-name="bracket" d="M869.6 308h-204.8c-28.32 0-51.2 22.88-51.2 51.2v51.2h-51.2v-153.6c0-28.32-22.88-51.2-51.2-51.2h-102.4v-51.2c0-28.32-22.88-51.2-51.2-51.2h-204.8c-28.32 0-51.2 22.88-51.2 51.2v204.8c0 28.32 22.88 51.2 51.2 51.2h204.8c28.32 0 51.2-22.88 51.2-51.2v-51.2h51.2v307.2h-51.2v-51.2c0-28.32-22.88-51.2-51.2-51.2h-204.8c-28.32 0-51.2 22.88-51.2 51.2v204.8c0 28.32 22.88 51.2 51.2 51.2h204.8c28.32 0 51.2-22.88 51.2-51.2v-51.2h102.4c28.32 0 51.2-22.88 51.2-51.2v-153.6h51.2v51.2c0 28.32 22.88 51.2 51.2 51.2h204.8c28.32 0 51.2-22.88 51.2-51.2v-204.8c0-28.32-22.88-51.2-51.2-51.2z" />
<glyph unicode="&#xf328;" glyph-name="friendly" horiz-adv-x="878" d="M648 358.56c-14.080-46.080-40.32-83.2-78.88-111.36-38.4-28.16-81.92-42.24-130.24-42.24s-91.84 14.080-130.24 42.24c-38.4 28.16-64.8 65.28-78.88 111.36-3.040 9.6-2.24 18.72 2.24 27.68 4.64 8.96 11.84 14.88 21.76 17.92 9.6 3.040 18.72 2.24 27.68-2.24 8.96-4.64 14.88-11.84 17.92-21.76 9.6-30.4 27.2-55.2 52.8-73.92 25.76-18.88 54.56-28.32 86.56-28.32s60.8 9.44 86.56 28.32c25.76 18.88 43.36 43.52 52.8 73.92 3.040 9.92 9.12 17.12 18.24 21.76s18.4 5.28 28 2.24c9.6-3.040 16.64-9.12 21.12-17.92 4.8-8.96 5.6-18.24 2.56-27.68v0zM365.76 607.040c0-20.16-7.2-37.44-21.44-51.68s-31.52-21.44-51.68-21.44c-20.16 0-37.44 7.2-51.68 21.44s-21.44 31.52-21.44 51.68 7.2 37.44 21.44 51.68c14.24 14.24 31.52 21.44 51.68 21.44s37.44-7.2 51.68-21.44c14.24-14.24 21.44-31.52 21.44-51.68v0zM658.24 607.040c0-20.16-7.2-37.44-21.44-51.68s-31.52-21.44-51.68-21.44c-20.16 0-37.44 7.2-51.68 21.44s-21.44 31.52-21.44 51.68 7.2 37.44 21.44 51.68c14.24 14.24 31.52 21.44 51.68 21.44s37.44-7.2 51.68-21.44c14.4-14.24 21.44-31.52 21.44-51.68v0zM804.64 460.8c0 49.6-9.76 96.8-29.12 141.92s-45.44 84-78.080 116.64-71.36 58.56-116.64 78.080-92.48 29.12-142.080 29.12c-49.6 0-96.8-9.76-142.080-29.12-45.12-19.36-84-45.44-116.64-78.080s-58.24-71.36-77.76-116.64-29.12-92.32-29.12-141.92c0-49.6 9.76-96.8 29.12-142.080s45.44-84 78.080-116.64c32.64-32.64 71.36-58.56 116.64-78.080s92.48-29.12 142.080-29.12 96.8 9.76 142.080 29.12c45.12 19.36 84 45.44 116.64 78.080s58.56 71.36 78.080 116.64c19.040 45.28 28.8 92.64 28.8 142.080v0zM877.76 460.8c0-79.68-19.68-153.12-58.88-220.32s-92.48-120.48-159.68-159.68-140.64-58.88-220.32-58.88-153.12 19.68-220.32 58.88-120.48 92.48-159.68 159.68-58.88 140.64-58.88 220.32 19.68 153.12 58.88 220.32 92.48 120.48 159.68 159.68 140.64 58.88 220.32 58.88 152.96-19.68 220.32-58.88 120.48-92.48 159.68-159.68c39.2-67.2 58.88-140.64 58.88-220.32v0z" />
<glyph unicode="&#xf330;" glyph-name="book" d="M852.378 709.478l-460.698 237.516c-63.13 33.228-187.546-30.976-223.282-87.5-15.924-25.294-14.796-43.52-14.796-53.862l5.682-536.32c0.358-11.418 14.746-26.726 26.982-34.304 25.55-15.668 412.672-257.28 423.578-264.14 5.888-3.686 12.902-5.376 19.764-5.376 5.836 0 11.726 1.28 17.050 3.942 11.674 5.734 18.944 16.794 18.944 28.928v563.252c0 11.724-6.86 22.528-18.022 28.416l-418.714 233.778c4.71 9.216 23.348 28.672 57.6 46.592 36.096 18.944 63.078 11.776 69.274 9.37 0 0 401.92-215.092 414.208-221.49 12.236-6.4 12.494-7.374 12.494-18.278 0-10.956 0-534.528 0-534.528 0-26.674 27.034-37.582 46.95-37.582 19.814 0 41.010 19.456 41.010 37.582v575.59c0 11.724-6.912 22.578-18.022 28.416z" />
<glyph unicode="&#xf332;" glyph-name="league" d="M870.4 665.6h-1.6l1.6-355.2v-3.2c0-13.92-5.12-25.92-15.2-36s-22.080-15.2-36-15.2h-614.4c-14.4 0-26.56 5.12-36.48 15.2s-14.72 22.080-14.72 36v3.2l1.6 355.2h-1.6c-14.4 0-26.56 4.96-36.48 14.72s-14.72 22.080-14.72 36.48 4.96 26.56 14.72 36.48 21.92 14.72 36.16 14.72 26.24-4.96 36.48-14.72 15.040-22.080 15.040-36.48c0-17.6-7.2-31.52-21.6-41.6l175.2-248 132.8 294.4c-9.12 3.68-16.32 9.92-22.080 18.4s-8.32 17.92-8.32 28c0 14.4 4.96 26.56 14.72 36.48s21.92 14.72 36 14.72 26.24-4.96 36.48-14.72 15.2-22.080 15.2-36.48c0-10.080-2.88-19.52-8.32-28s-12.96-14.72-22.080-18.4l132.8-294.4 175.2 248c-14.4 10.080-21.6 24-21.6 41.6 0 14.4 4.96 26.56 14.72 36.48s21.92 14.72 36 14.72 26.24-4.96 36.48-14.72 15.2-22.080 15.2-36.48-5.12-26.56-15.2-36.48-22.080-14.72-36-14.72zM153.6 204.8h716.8c13.92 0 25.92-4.96 36-14.72s15.2-21.92 15.2-36-5.12-26.24-15.2-36.48-22.080-15.2-36-15.2h-716.8c-13.92 0-25.92 5.12-36 15.2s-15.2 22.24-15.2 36.32 4.96 26.080 14.72 36 22.080 14.88 36.48 14.88z" />
<glyph unicode="&#xf334;" glyph-name="shield" d="M851.52 308.96c-12.32-31.52-28-59.68-46.4-84s-40.48-48.16-66.080-71.36c-25.6-23.040-49.12-42.4-70.72-57.76-21.76-15.2-44.16-29.76-67.68-43.36-23.68-13.6-40.32-22.88-50.24-27.84-9.92-4.8-17.92-8.48-23.84-11.040-4.48-2.4-9.28-3.36-14.56-3.36s-10.080 1.28-14.56 3.36c-6.080 2.56-13.76 6.24-23.84 11.040s-26.72 14.080-50.24 27.84c-23.52 13.6-46.080 28-67.68 43.36-21.76 15.36-45.12 34.56-70.72 57.76-25.6 23.040-47.68 46.72-66.080 71.36s-33.92 52.48-46.4 84c-12.64 31.52-18.88 63.52-18.88 95.52v430.080c0 9.6 3.36 18.24 10.56 25.28s15.52 10.56 25.28 10.56h645.12c9.6 0 18.24-3.36 25.28-10.56s10.56-15.52 10.56-25.28v-430.080c0-32-6.4-64-18.88-95.52v0zM768 768h-512v-363.84c0-66.72 44.8-135.040 134.24-204.64 35.84-28 76.48-54.080 121.76-77.92v0 0 0 0c45.28 23.84 85.92 49.92 121.76 77.92 89.44 69.76 134.24 137.92 134.24 204.64v363.84zM609.44 245.6c-28.64-23.2-61.12-44.8-97.44-64.48v0 0 535.36h204.8v-301.44c0-55.2-35.84-111.68-107.36-169.44v0z" />
<glyph unicode="&#xf335;" glyph-name="cancel" d="M512 910.222c-251.362 0-455.11-203.748-455.11-455.11s203.75-455.11 455.11-455.11 455.11 203.75 455.11 455.11-203.75 455.11-455.11 455.11zM170.668 455.112c0 73.64 23.666 141.694 63.472 197.528l475.388-475.388c-55.832-39.806-123.888-63.472-197.528-63.472-188.222 0-341.334 153.11-341.334 341.334zM789.86 257.584l-475.388 475.388c55.834 39.806 123.888 63.472 197.526 63.472 188.222 0 341.334-153.11 341.334-341.334 0-73.64-23.666-141.694-63.472-197.526z" />
<glyph unicode="&#xf338;" glyph-name="staff" d="M819.2 51.2h-614.4c-28.32 0-51.2 22.88-51.2 51.2v716.8c0 28.32 22.88 51.2 51.2 51.2h614.4c28.32 0 51.2-22.88 51.2-51.2v-716.8c0-28.32-22.88-51.2-51.2-51.2zM665.6 768h-307.2l102.4-102.4-102.4-409.6 153.6-153.6 153.6 153.6-102.4 409.6 102.4 102.4z" />
</font>
</defs>
</svg>
